<svg width="60" height="69" viewBox="0 0 60 69" fill="none" xmlns="http://www.w3.org/2000/svg">
<path d="M43.7499 19.1598V15.4098C43.7499 15.066 43.4686 14.7848 43.1249 14.7848H13.1249C12.7811 14.7848 12.4999 15.066 12.4999 15.4098V19.1598C12.4999 19.5035 12.7811 19.7848 13.1249 19.7848H43.1249C43.4686 19.7848 43.7499 19.5035 43.7499 19.1598ZM13.1249 26.0348C12.7811 26.0348 12.4999 26.316 12.4999 26.6598V30.4098C12.4999 30.7535 12.7811 31.0348 13.1249 31.0348H27.4999C27.8436 31.0348 28.1249 30.7535 28.1249 30.4098V26.6598C28.1249 26.316 27.8436 26.0348 27.4999 26.0348H13.1249ZM42.4999 35.0973C33.1796 35.0973 25.6249 42.652 25.6249 51.9723C25.6249 61.2926 33.1796 68.8473 42.4999 68.8473C51.8202 68.8473 59.3749 61.2926 59.3749 51.9723C59.3749 42.652 51.8202 35.0973 42.4999 35.0973ZM50.8983 60.3707C48.6561 62.6129 45.6718 63.8473 42.4999 63.8473C39.328 63.8473 36.3436 62.6129 34.1014 60.3707C31.8593 58.1285 30.6249 55.1442 30.6249 51.9723C30.6249 48.8004 31.8593 45.816 34.1014 43.5739C36.3436 41.3317 39.328 40.0973 42.4999 40.0973C45.6718 40.0973 48.6561 41.3317 50.8983 43.5739C53.1405 45.816 54.3749 48.8004 54.3749 51.9723C54.3749 55.1442 53.1405 58.1285 50.8983 60.3707ZM49.453 46.0348H45.9921C45.7889 46.0348 45.6014 46.1285 45.4843 46.2926L40.5233 53.152L38.7186 50.6598C38.6608 50.5793 38.5845 50.5139 38.4961 50.469C38.4078 50.4241 38.3099 50.4011 38.2108 50.402H34.7655C34.2577 50.402 33.9608 50.9801 34.2577 51.3942L40.0233 59.3707C40.2733 59.7145 40.7811 59.7145 41.0311 59.3707L49.953 47.027C50.2577 46.6129 49.9608 46.0348 49.453 46.0348ZM24.3749 61.3473H6.24988V6.34729H49.9999V33.2223C49.9999 33.566 50.2811 33.8473 50.6249 33.8473H54.9999C55.3436 33.8473 55.6249 33.566 55.6249 33.2223V3.22229C55.6249 1.83948 54.5077 0.72229 53.1249 0.72229H3.12488C1.74207 0.72229 0.624878 1.83948 0.624878 3.22229V64.4723C0.624878 65.8551 1.74207 66.9723 3.12488 66.9723H24.3749C24.7186 66.9723 24.9999 66.691 24.9999 66.3473V61.9723C24.9999 61.6285 24.7186 61.3473 24.3749 61.3473Z" fill="white"/>
</svg>
