<svg width="68" height="53" viewBox="0 0 68 53" fill="none" xmlns="http://www.w3.org/2000/svg">
<path d="M33.8635 0C30.1779 0 26.9056 1.19782 24.5445 3.35686C24.0538 3.8079 23.6111 4.31069 23.2053 4.83936C22.2461 4.25154 20.9364 3.78571 19.2467 3.78571C16.2363 3.78571 13.5432 4.76911 11.599 6.55476C9.65842 8.3441 8.5 10.9283 8.5 13.9487C8.5 15.9155 8.99805 19.4757 9.27105 21.4388C8.83941 21.8085 8.5 22.2817 8.5 22.9028C8.5 23.4204 8.64388 23.7605 8.75087 24.108C8.80621 24.2855 8.85786 24.4408 8.88737 24.5554C8.92057 24.67 8.91688 24.792 8.91688 24.6071C8.91688 25.5277 9.64366 26.1377 10.4811 26.3373C10.6988 28.8143 11.8867 30.9955 13.6944 32.4928V36.2453C13.1927 36.4116 10.5254 37.2693 7.3342 38.8516C5.59288 39.713 3.83681 40.726 2.46441 41.8795C1.09201 43.0292 0 44.3675 0 45.9942V49.2143H11.3333V53H56.6667V49.2143H68V45.9942C68 44.3675 66.908 43.0292 65.5356 41.8795C64.1632 40.726 62.4071 39.713 60.6658 38.8516C57.4746 37.2693 54.8073 36.4116 54.3056 36.2453V32.4928C56.1133 30.9955 57.3012 28.8143 57.5189 26.3373C58.3563 26.1377 59.0831 25.5277 59.0831 24.6071C59.0831 24.792 59.0794 24.67 59.1126 24.5554C59.1421 24.4408 59.1938 24.2855 59.2491 24.108C59.3561 23.7605 59.5 23.4204 59.5 22.9028C59.5 22.2817 59.1569 21.8085 58.7253 21.4388C59.0019 19.4498 59.5 15.8305 59.5 13.9487C59.5 11.457 58.799 9.60847 57.7107 8.38846C56.7515 7.32373 55.523 6.85052 54.3351 6.72852C54.1691 6.42906 54.0215 6.05197 53.3021 5.43457C52.4462 4.69887 51.1181 3.98165 49.2845 3.81899C49.2255 3.81159 49.1738 3.78571 49.1111 3.78571C49.0742 3.78571 49.041 3.8042 49.0041 3.8079C48.8455 3.8005 48.6905 3.78571 48.5245 3.78571C46.8349 3.78571 45.2595 4.11105 43.8429 4.69887C43.0202 4.22566 42.1237 3.99275 41.2457 3.90402C41.0206 3.47517 40.6517 2.85777 39.888 2.14425C38.7185 1.05734 36.7632 0 33.8635 0ZM33.8635 1.89286C36.3168 1.89286 37.7372 2.72838 38.6042 3.53432C39.4674 4.33657 39.7257 5.05748 39.7257 5.05748L39.9507 5.67857H40.6111C41.7326 5.67857 42.8652 6.04827 43.7543 7.01688C44.6434 7.98549 45.3333 9.61586 45.3333 12.3036C45.3333 14.4219 44.7541 19.021 44.5069 20.8399L44.4147 21.5312L45.0419 21.827C45.23 21.912 45.3333 22.0636 45.3333 22.2411C45.3333 22.2559 45.2448 22.7217 45.1267 23.1283C45.064 23.3354 45.005 23.5387 44.9496 23.731C44.898 23.9232 44.8427 24.0526 44.8427 24.3705C44.8427 24.4888 44.7467 24.6071 44.5549 24.6071H42.5V25.9085C42.5 28.696 41.1608 31.1508 39.0985 32.7035L38.7222 32.9882V38.5337L39.3605 38.7518C39.3605 38.7518 43.3227 40.1123 47.2554 42.1789C49.2218 43.2141 51.1771 44.4267 52.5864 45.68C53.9957 46.9369 54.7778 48.1865 54.7778 49.2143V51.1071H13.2222V49.2143C13.2222 48.1865 14.0043 46.9369 15.4136 45.68C16.8229 44.4267 18.7782 43.2141 20.7446 42.1789C24.6773 40.1123 28.6395 38.7518 28.6395 38.7518L29.2778 38.5337V32.9919L28.9015 32.7072C26.8392 31.1508 25.5 28.696 25.5 25.9085V24.6071H23.4451C23.2533 24.6071 23.1573 24.4888 23.1573 24.3705C23.1573 24.0526 23.102 23.9232 23.0503 23.731C22.995 23.5387 22.936 23.3354 22.8733 23.1283C22.7552 22.7217 22.6667 22.2559 22.6667 22.2411C22.6667 22.0673 22.77 21.912 22.9544 21.827L23.5816 21.5312L23.4894 20.8399C23.2422 19.0469 22.6667 14.5624 22.6667 12.3036C22.6667 9.11307 23.8472 6.55845 25.821 4.75063C27.791 2.9465 30.5875 1.89286 33.8635 1.89286ZM19.2467 5.67857C20.5822 5.67857 21.5156 6.015 22.1908 6.42906C21.6447 7.46052 21.2426 8.5881 21.0139 9.80441C20.8737 9.96708 20.7778 10.1741 20.7778 10.4107C20.7778 10.5512 20.811 10.6806 20.8663 10.7989C20.811 11.2906 20.7778 11.7897 20.7778 12.3036C20.7778 13.2278 20.8626 14.3739 20.9733 15.5421C20.8589 15.6974 20.7778 15.8786 20.7778 16.0893C20.7778 16.3666 20.9032 16.6106 21.0914 16.7843C21.2537 18.2483 21.4418 19.668 21.571 20.6144C21.1246 21.0396 20.7778 21.5756 20.7778 22.2411C20.7778 22.7993 20.9364 23.2319 21.0618 23.6607C21.1246 23.8788 21.1873 24.0785 21.2242 24.2264C21.2648 24.3742 21.2684 24.5221 21.2684 24.3705C21.2684 25.5573 22.2756 26.5 23.4451 26.5H23.6849C23.7402 27.513 23.9542 28.4816 24.2789 29.3947C23.8952 29.5167 23.6111 29.8606 23.6111 30.2857C23.6111 30.807 24.0354 31.2321 24.5556 31.2321C24.7437 31.2321 24.9097 31.1619 25.0573 31.0695C25.4557 31.7608 25.9279 32.4041 26.474 32.9845C26.4629 33.0326 26.4444 33.0769 26.4444 33.125C26.4444 33.6463 26.8687 34.0714 27.3889 34.0714V37.2065C26.7765 37.4209 24.9319 38.0901 22.5929 39.1696C22.6408 39.055 22.6667 38.933 22.6667 38.8036C22.6667 38.2823 22.2424 37.8571 21.7222 37.8571C21.202 37.8571 20.7778 38.2823 20.7778 38.8036C20.7778 39.2435 21.084 39.5984 21.4898 39.7056C20.9549 39.9644 20.4347 40.2084 19.8665 40.5042C19.6821 40.604 19.4976 40.7075 19.3168 40.811C19.184 40.7408 19.0438 40.6964 18.8889 40.6964C18.3908 40.6964 17.9924 41.0883 17.9592 41.58C16.5794 42.3933 15.2587 43.288 14.1593 44.264C13.1189 45.192 12.2446 46.2049 11.7539 47.3214H8.5C8.5 46.8002 8.07574 46.375 7.55556 46.375C7.03537 46.375 6.61111 46.8002 6.61111 47.3214H2.83333C2.83333 46.8002 2.40907 46.375 1.88889 46.375V45.9942C1.88889 45.2881 2.49761 44.3195 3.67817 43.3287C4.49718 42.641 5.5523 41.9682 6.67014 41.3434C6.64062 41.4358 6.61111 41.5356 6.61111 41.6429C6.61111 42.1641 7.03537 42.5893 7.55556 42.5893C8.07574 42.5893 8.5 42.1641 8.5 41.6429C8.5 41.2066 8.19748 40.8517 7.79167 40.7445C7.92079 40.6816 8.04253 40.6114 8.17166 40.5485C8.81358 40.2306 9.43707 39.9533 10.0495 39.6798C10.1565 39.7241 10.2708 39.75 10.3889 39.75C10.7836 39.75 11.1194 39.5097 11.2595 39.1659C13.178 38.3784 14.661 37.8793 14.7348 37.8571H15.5833V33.9272C15.7235 34.0123 15.8785 34.0714 16.0556 34.0714C16.5757 34.0714 17 33.6463 17 33.125C17 32.6037 16.5757 32.1786 16.0556 32.1786C15.8785 32.1786 15.7235 32.2377 15.5833 32.3228V31.6055L15.196 31.3246C14.816 31.0436 14.4692 30.722 14.1519 30.3744C14.1519 30.3412 14.1667 30.3153 14.1667 30.2857C14.1667 29.8199 13.8236 29.4539 13.3845 29.3726C12.6873 28.2709 12.2778 26.9695 12.2778 25.5647V24.6071H10.9054C10.791 24.6071 10.8058 24.5665 10.8058 24.6071C10.8058 24.2929 10.7504 24.1931 10.7025 24.0304C10.6582 23.8714 10.6066 23.7088 10.5549 23.5461C10.4553 23.2245 10.3889 22.8437 10.3889 22.9028C10.3889 22.8585 10.4147 22.7919 10.566 22.7439L11.3075 22.4925L11.2595 22.1376C11.3075 22.0229 11.3333 21.8973 11.3333 21.7679C11.3333 21.5571 11.2522 21.3723 11.1341 21.217C10.9792 20.1079 10.7799 18.5552 10.6139 16.9914C11.0234 16.8841 11.3333 16.5292 11.3333 16.0893C11.3333 15.5902 10.9423 15.1909 10.4516 15.1576C10.4221 14.7177 10.3889 14.2593 10.3889 13.9487C10.3889 12.9764 10.5254 12.0818 10.7836 11.2684C11.1046 11.1168 11.3333 10.7915 11.3333 10.4107C11.3333 10.2961 11.3075 10.1889 11.2706 10.0854C11.6137 9.40513 12.0527 8.79144 12.5766 8.25537C12.7463 8.41434 12.9714 8.51786 13.2222 8.51786C13.7424 8.51786 14.1667 8.0927 14.1667 7.57143C14.1667 7.39028 14.1039 7.23131 14.0154 7.08712C15.4431 6.18876 17.2214 5.67857 19.2467 5.67857ZM12.2778 24.6071C12.2778 25.1284 12.702 25.5536 13.2222 25.5536C13.7424 25.5536 14.1667 25.1284 14.1667 24.6071C14.1667 24.0859 13.7424 23.6607 13.2222 23.6607C12.702 23.6607 12.2778 24.0859 12.2778 24.6071ZM48.5245 5.67857C50.0961 5.67857 51.0959 6.14809 51.7821 6.65827C51.3431 6.73591 51 7.10561 51 7.57143C51 8.0927 51.4243 8.51786 51.9444 8.51786C52.3982 8.51786 52.7635 8.18883 52.852 7.75997C52.9036 7.84501 52.9737 7.96331 52.9737 7.96331L53.2246 8.51786H53.8333C54.6597 8.51786 55.5746 8.84319 56.3014 9.65653C56.8253 10.237 57.2717 11.0984 57.4783 12.3295C57.0245 12.396 56.6667 12.7731 56.6667 13.25C56.6667 13.7676 57.0835 14.189 57.5964 14.1964C57.5779 15.1022 57.4377 16.5403 57.2643 18.0524C56.9138 18.1929 56.6667 18.5293 56.6667 18.9286C56.6667 19.2391 56.8253 19.5016 57.0577 19.6754C56.9655 20.3889 56.8659 21.2466 56.7995 21.7161L56.6925 22.4925L57.434 22.7439C57.5853 22.7956 57.6111 22.8585 57.6111 22.9028C57.6111 22.8437 57.5447 23.2245 57.4451 23.5461C57.4303 23.5979 57.4119 23.6496 57.3971 23.7051C56.9803 23.8012 56.6667 24.1598 56.6667 24.6071H55.7222V25.5647C55.7222 26.0453 55.6632 26.5111 55.5746 26.9658C55.4086 26.6922 55.1209 26.5 54.7778 26.5C54.2576 26.5 53.8333 26.9252 53.8333 27.4464C53.8333 27.9677 54.2576 28.3929 54.7778 28.3929C54.918 28.3929 55.0508 28.3596 55.1725 28.3041C54.6671 29.5167 53.8481 30.5593 52.804 31.3246L52.4167 31.6055V35.162C52.2765 35.077 52.1215 35.0179 51.9444 35.0179C51.4243 35.0179 51 35.443 51 35.9643C51 36.4856 51.4243 36.9107 51.9444 36.9107C52.1215 36.9107 52.2765 36.8516 52.4167 36.7665V37.8571H53.2652C53.2873 37.8645 53.8555 38.0716 54.0953 38.1529C53.9329 38.323 53.8333 38.5522 53.8333 38.8036C53.8333 39.3248 54.2576 39.75 54.7778 39.75C55.298 39.75 55.7222 39.3248 55.7222 38.8036C55.7222 38.7851 55.7112 38.7703 55.7112 38.7481C56.8843 39.2065 58.3342 39.8055 59.8283 40.5485C60.7138 40.9885 61.5881 41.4654 62.396 41.9682C62.5326 42.3305 62.872 42.5893 63.2778 42.5893C63.2962 42.5893 63.3147 42.5782 63.3368 42.5782C63.691 42.8259 64.0193 43.0773 64.3218 43.3287C64.6797 43.6281 64.9674 43.9239 65.222 44.216C65.1962 44.301 65.1667 44.386 65.1667 44.4821C65.1667 44.9628 65.5282 45.3435 65.9894 45.4027C66.0668 45.6171 66.1111 45.8131 66.1111 45.9942V47.3214H64.2222C64.2222 46.8002 63.798 46.375 63.2778 46.375C62.7576 46.375 62.3333 46.8002 62.3333 47.3214H58.5556C58.5556 46.8002 58.1313 46.375 57.6111 46.375C57.0909 46.375 56.6667 46.8002 56.6667 47.3214H56.2461C55.9473 46.6412 55.5082 45.9979 54.9696 45.3879C55.3976 45.2992 55.7222 44.9369 55.7222 44.4821C55.7222 43.9609 55.298 43.5357 54.7778 43.5357C54.324 43.5357 53.9588 43.8647 53.8702 44.2936C53.8592 44.2862 53.8518 44.2751 53.8407 44.264C52.2396 42.8407 50.181 41.58 48.1335 40.5042C46.7574 39.7833 45.503 39.2065 44.3704 38.7148C44.3225 38.2342 43.9351 37.8571 43.4444 37.8571C43.2231 37.8571 43.0312 37.9459 42.8689 38.0753C41.8101 37.6464 40.9727 37.3322 40.6111 37.2065V36.9107C41.1313 36.9107 41.5556 36.4856 41.5556 35.9643C41.5556 35.443 41.1313 35.0179 40.6111 35.0179V33.8607C42.3451 32.4152 43.5773 30.4188 44.079 28.1415C44.2671 27.9677 44.3889 27.7237 44.3889 27.4464C44.3889 27.2801 44.3372 27.1359 44.2598 26.9991C44.2782 26.8327 44.3077 26.6701 44.3151 26.5H44.5549C45.3001 26.5 45.9716 26.1155 46.3663 25.5351C46.8422 25.487 47.2222 25.0988 47.2222 24.6071C47.2222 24.3151 47.082 24.06 46.8717 23.8862C46.8939 23.8086 46.9123 23.7494 46.9381 23.6607C47.0636 23.2319 47.2222 22.7993 47.2222 22.2411C47.2222 21.5719 46.8754 21.0359 46.4253 20.6107C46.4512 20.4148 46.4918 20.0562 46.525 19.8269C46.9234 19.716 47.2222 19.3648 47.2222 18.9286C47.2222 18.5737 47.0193 18.2779 46.7352 18.1152C46.9787 16.1226 47.2222 13.9007 47.2222 12.3036C47.2222 10.8026 47.023 9.51604 46.6651 8.42913C46.9935 8.28125 47.2222 7.95222 47.2222 7.57143C47.2222 7.05015 46.798 6.625 46.2778 6.625C46.1339 6.625 45.9974 6.66567 45.8756 6.72482C45.7465 6.51039 45.6063 6.31076 45.4625 6.12221C46.4032 5.84124 47.4251 5.67857 48.5245 5.67857ZM18.8889 6.625C18.3687 6.625 17.9444 7.05015 17.9444 7.57143C17.9444 8.0927 18.3687 8.51786 18.8889 8.51786C19.4091 8.51786 19.8333 8.0927 19.8333 7.57143C19.8333 7.05015 19.4091 6.625 18.8889 6.625ZM16.0556 9.46429C15.5354 9.46429 15.1111 9.88944 15.1111 10.4107C15.1111 10.932 15.5354 11.3571 16.0556 11.3571C16.5757 11.3571 17 10.932 17 10.4107C17 9.88944 16.5757 9.46429 16.0556 9.46429ZM49.1111 9.46429C48.5909 9.46429 48.1667 9.88944 48.1667 10.4107C48.1667 10.932 48.5909 11.3571 49.1111 11.3571C49.6313 11.3571 50.0556 10.932 50.0556 10.4107C50.0556 9.88944 49.6313 9.46429 49.1111 9.46429ZM54.7778 9.46429C54.2576 9.46429 53.8333 9.88944 53.8333 10.4107C53.8333 10.932 54.2576 11.3571 54.7778 11.3571C55.298 11.3571 55.7222 10.932 55.7222 10.4107C55.7222 9.88944 55.298 9.46429 54.7778 9.46429ZM13.2222 12.3036C12.702 12.3036 12.2778 12.7287 12.2778 13.25C12.2778 13.7713 12.702 14.1964 13.2222 14.1964C13.7424 14.1964 14.1667 13.7713 14.1667 13.25C14.1667 12.7287 13.7424 12.3036 13.2222 12.3036ZM18.8889 12.3036C18.3687 12.3036 17.9444 12.7287 17.9444 13.25C17.9444 13.7713 18.3687 14.1964 18.8889 14.1964C19.4091 14.1964 19.8333 13.7713 19.8333 13.25C19.8333 12.7287 19.4091 12.3036 18.8889 12.3036ZM51.9444 12.3036C51.4243 12.3036 51 12.7287 51 13.25C51 13.7713 51.4243 14.1964 51.9444 14.1964C52.4646 14.1964 52.8889 13.7713 52.8889 13.25C52.8889 12.7287 52.4646 12.3036 51.9444 12.3036ZM16.0556 15.1429C15.5354 15.1429 15.1111 15.568 15.1111 16.0893C15.1111 16.6106 15.5354 17.0357 16.0556 17.0357C16.5757 17.0357 17 16.6106 17 16.0893C17 15.568 16.5757 15.1429 16.0556 15.1429ZM49.1111 15.1429C48.5909 15.1429 48.1667 15.568 48.1667 16.0893C48.1667 16.6106 48.5909 17.0357 49.1111 17.0357C49.6313 17.0357 50.0556 16.6106 50.0556 16.0893C50.0556 15.568 49.6313 15.1429 49.1111 15.1429ZM54.7778 15.1429C54.2576 15.1429 53.8333 15.568 53.8333 16.0893C53.8333 16.6106 54.2576 17.0357 54.7778 17.0357C55.298 17.0357 55.7222 16.6106 55.7222 16.0893C55.7222 15.568 55.298 15.1429 54.7778 15.1429ZM13.2222 17.9821C12.702 17.9821 12.2778 18.4073 12.2778 18.9286C12.2778 19.4498 12.702 19.875 13.2222 19.875C13.7424 19.875 14.1667 19.4498 14.1667 18.9286C14.1667 18.4073 13.7424 17.9821 13.2222 17.9821ZM18.8889 17.9821C18.3687 17.9821 17.9444 18.4073 17.9444 18.9286C17.9444 19.4498 18.3687 19.875 18.8889 19.875C19.4091 19.875 19.8333 19.4498 19.8333 18.9286C19.8333 18.4073 19.4091 17.9821 18.8889 17.9821ZM51.9444 17.9821C51.4243 17.9821 51 18.4073 51 18.9286C51 19.4498 51.4243 19.875 51.9444 19.875C52.4646 19.875 52.8889 19.4498 52.8889 18.9286C52.8889 18.4073 52.4646 17.9821 51.9444 17.9821ZM16.0556 20.8214C15.5354 20.8214 15.1111 21.2466 15.1111 21.7679C15.1111 22.2891 15.5354 22.7143 16.0556 22.7143C16.5757 22.7143 17 22.2891 17 21.7679C17 21.2466 16.5757 20.8214 16.0556 20.8214ZM49.1111 20.8214C48.5909 20.8214 48.1667 21.2466 48.1667 21.7679C48.1667 22.2891 48.5909 22.7143 49.1111 22.7143C49.6313 22.7143 50.0556 22.2891 50.0556 21.7679C50.0556 21.2466 49.6313 20.8214 49.1111 20.8214ZM54.7778 20.8214C54.2576 20.8214 53.8333 21.2466 53.8333 21.7679C53.8333 22.2891 54.2576 22.7143 54.7778 22.7143C55.298 22.7143 55.7222 22.2891 55.7222 21.7679C55.7222 21.2466 55.298 20.8214 54.7778 20.8214ZM18.8889 23.6607C18.3687 23.6607 17.9444 24.0859 17.9444 24.6071C17.9444 25.1284 18.3687 25.5536 18.8889 25.5536C19.4091 25.5536 19.8333 25.1284 19.8333 24.6071C19.8333 24.0859 19.4091 23.6607 18.8889 23.6607ZM51.9444 23.6607C51.4243 23.6607 51 24.0859 51 24.6071C51 25.1284 51.4243 25.5536 51.9444 25.5536C52.4646 25.5536 52.8889 25.1284 52.8889 24.6071C52.8889 24.0859 52.4646 23.6607 51.9444 23.6607ZM16.0556 26.5C15.5354 26.5 15.1111 26.9252 15.1111 27.4464C15.1111 27.9677 15.5354 28.3929 16.0556 28.3929C16.5757 28.3929 17 27.9677 17 27.4464C17 26.9252 16.5757 26.5 16.0556 26.5ZM21.7222 26.5C21.202 26.5 20.7778 26.9252 20.7778 27.4464C20.7778 27.9677 21.202 28.3929 21.7222 28.3929C22.2424 28.3929 22.6667 27.9677 22.6667 27.4464C22.6667 26.9252 22.2424 26.5 21.7222 26.5ZM49.1111 26.5C48.5909 26.5 48.1667 26.9252 48.1667 27.4464C48.1667 27.9677 48.5909 28.3929 49.1111 28.3929C49.6313 28.3929 50.0556 27.9677 50.0556 27.4464C50.0556 26.9252 49.6313 26.5 49.1111 26.5ZM18.8889 29.3393C18.3687 29.3393 17.9444 29.7644 17.9444 30.2857C17.9444 30.807 18.3687 31.2321 18.8889 31.2321C19.4091 31.2321 19.8333 30.807 19.8333 30.2857C19.8333 29.7644 19.4091 29.3393 18.8889 29.3393ZM46.2778 29.3393C45.7576 29.3393 45.3333 29.7644 45.3333 30.2857C45.3333 30.807 45.7576 31.2321 46.2778 31.2321C46.798 31.2321 47.2222 30.807 47.2222 30.2857C47.2222 29.7644 46.798 29.3393 46.2778 29.3393ZM51.9444 29.3393C51.4243 29.3393 51 29.7644 51 30.2857C51 30.807 51.4243 31.2321 51.9444 31.2321C52.4646 31.2321 52.8889 30.807 52.8889 30.2857C52.8889 29.7644 52.4646 29.3393 51.9444 29.3393ZM21.7222 32.1786C21.202 32.1786 20.7778 32.6037 20.7778 33.125C20.7778 33.6463 21.202 34.0714 21.7222 34.0714C22.2424 34.0714 22.6667 33.6463 22.6667 33.125C22.6667 32.6037 22.2424 32.1786 21.7222 32.1786ZM43.4444 32.1786C42.9243 32.1786 42.5 32.6037 42.5 33.125C42.5 33.6463 42.9243 34.0714 43.4444 34.0714C43.9646 34.0714 44.3889 33.6463 44.3889 33.125C44.3889 32.6037 43.9646 32.1786 43.4444 32.1786ZM49.1111 32.1786C48.5909 32.1786 48.1667 32.6037 48.1667 33.125C48.1667 33.6463 48.5909 34.0714 49.1111 34.0714C49.6313 34.0714 50.0556 33.6463 50.0556 33.125C50.0556 32.6037 49.6313 32.1786 49.1111 32.1786ZM18.8889 35.0179C18.3687 35.0179 17.9444 35.443 17.9444 35.9643C17.9444 36.4856 18.3687 36.9107 18.8889 36.9107C19.4091 36.9107 19.8333 36.4856 19.8333 35.9643C19.8333 35.443 19.4091 35.0179 18.8889 35.0179ZM24.5556 35.0179C24.0354 35.0179 23.6111 35.443 23.6111 35.9643C23.6111 36.4856 24.0354 36.9107 24.5556 36.9107C25.0757 36.9107 25.5 36.4856 25.5 35.9643C25.5 35.443 25.0757 35.0179 24.5556 35.0179ZM46.2778 35.0179C45.7576 35.0179 45.3333 35.443 45.3333 35.9643C45.3333 36.4856 45.7576 36.9107 46.2778 36.9107C46.798 36.9107 47.2222 36.4856 47.2222 35.9643C47.2222 35.443 46.798 35.0179 46.2778 35.0179ZM16.0556 37.8571C15.5354 37.8571 15.1111 38.2823 15.1111 38.8036C15.1111 39.3248 15.5354 39.75 16.0556 39.75C16.5757 39.75 17 39.3248 17 38.8036C17 38.2823 16.5757 37.8571 16.0556 37.8571ZM49.1111 37.8571C48.5909 37.8571 48.1667 38.2823 48.1667 38.8036C48.1667 39.3248 48.5909 39.75 49.1111 39.75C49.6313 39.75 50.0556 39.3248 50.0556 38.8036C50.0556 38.2823 49.6313 37.8571 49.1111 37.8571ZM13.2222 40.6964C12.702 40.6964 12.2778 41.1216 12.2778 41.6429C12.2778 42.1641 12.702 42.5893 13.2222 42.5893C13.7424 42.5893 14.1667 42.1641 14.1667 41.6429C14.1667 41.1216 13.7424 40.6964 13.2222 40.6964ZM51.9444 40.6964C51.4243 40.6964 51 41.1216 51 41.6429C51 42.1641 51.4243 42.5893 51.9444 42.5893C52.4646 42.5893 52.8889 42.1641 52.8889 41.6429C52.8889 41.1216 52.4646 40.6964 51.9444 40.6964ZM57.6111 40.6964C57.0909 40.6964 56.6667 41.1216 56.6667 41.6429C56.6667 42.1641 57.0909 42.5893 57.6111 42.5893C58.1313 42.5893 58.5556 42.1641 58.5556 41.6429C58.5556 41.1216 58.1313 40.6964 57.6111 40.6964ZM4.72222 43.5357C4.20204 43.5357 3.77778 43.9609 3.77778 44.4821C3.77778 45.0034 4.20204 45.4286 4.72222 45.4286C5.2424 45.4286 5.66667 45.0034 5.66667 44.4821C5.66667 43.9609 5.2424 43.5357 4.72222 43.5357ZM10.3889 43.5357C9.86871 43.5357 9.44444 43.9609 9.44444 44.4821C9.44444 45.0034 9.86871 45.4286 10.3889 45.4286C10.9091 45.4286 11.3333 45.0034 11.3333 44.4821C11.3333 43.9609 10.9091 43.5357 10.3889 43.5357ZM60.4444 43.5357C59.9243 43.5357 59.5 43.9609 59.5 44.4821C59.5 45.0034 59.9243 45.4286 60.4444 45.4286C60.9646 45.4286 61.3889 45.0034 61.3889 44.4821C61.3889 43.9609 60.9646 43.5357 60.4444 43.5357Z" fill="#0AA884"/>
</svg>
