<svg width="17" height="20" viewBox="0 0 17 20" fill="none" xmlns="http://www.w3.org/2000/svg">
<path d="M2 19.1667C1.45 19.1667 0.979 18.9792 0.587 18.6041C0.195667 18.2285 0 17.7771 0 17.25V3.83333H2V17.25H13V19.1667H2ZM6 15.3333C5.45 15.3333 4.97933 15.1458 4.588 14.7708C4.196 14.3951 4 13.9437 4 13.4167V1.91667C4 1.38958 4.196 0.938208 4.588 0.562542C4.97933 0.187514 5.45 0 6 0H15C15.55 0 16.021 0.187514 16.413 0.562542C16.8043 0.938208 17 1.38958 17 1.91667V13.4167C17 13.9437 16.8043 14.3951 16.413 14.7708C16.021 15.1458 15.55 15.3333 15 15.3333H6ZM6 13.4167H15V1.91667H6V13.4167ZM6 13.4167V1.91667V13.4167Z" fill="#11B28E"/>
</svg>
