<svg width="49" height="48" viewBox="0 0 49 48" fill="none" xmlns="http://www.w3.org/2000/svg">
<path d="M4.3335 48C4.3335 48 0.333496 48 0.333496 44C0.333496 40 4.3335 28 24.3335 28C44.3335 28 48.3335 40 48.3335 44C48.3335 48 44.3335 48 44.3335 48H4.3335ZM24.3335 24C27.5161 24 30.5683 22.7357 32.8188 20.4853C35.0692 18.2348 36.3335 15.1826 36.3335 12C36.3335 8.8174 35.0692 5.76516 32.8188 3.51472C30.5683 1.26428 27.5161 0 24.3335 0C21.1509 0 18.0987 1.26428 15.8482 3.51472C13.5978 5.76516 12.3335 8.8174 12.3335 12C12.3335 15.1826 13.5978 18.2348 15.8482 20.4853C18.0987 22.7357 21.1509 24 24.3335 24Z" fill="#0AA884"/>
</svg>
