<svg width="59" height="59" viewBox="0 0 59 59" fill="none" xmlns="http://www.w3.org/2000/svg">
<path d="M5.604 58.1285C5.604 58.1285 0.791504 58.1285 0.791504 53.316C0.791504 48.5035 5.604 34.066 29.6665 34.066C53.729 34.066 58.5415 48.5035 58.5415 53.316C58.5415 58.1285 53.729 58.1285 53.729 58.1285H5.604ZM29.6665 29.2535C33.4956 29.2535 37.1678 27.7325 39.8754 25.0249C42.5829 22.3173 44.104 18.6451 44.104 14.816C44.104 10.987 42.5829 7.31474 39.8754 4.60719C37.1678 1.89963 33.4956 0.37854 29.6665 0.37854C25.8374 0.37854 22.1652 1.89963 19.4577 4.60719C16.7501 7.31474 15.229 10.987 15.229 14.816C15.229 18.6451 16.7501 22.3173 19.4577 25.0249C22.1652 27.7325 25.8374 29.2535 29.6665 29.2535Z" fill="white"/>
</svg>
