<svg width="24" height="24" viewBox="0 0 24 24" fill="none" xmlns="http://www.w3.org/2000/svg">
<path fill-rule="evenodd" clip-rule="evenodd" d="M12 24C18.6274 24 24 18.6274 24 12C24 5.37258 18.6274 0 12 0C5.37258 0 0 5.37258 0 12C0 18.6274 5.37258 24 12 24ZM12 2.25C14.6715 2.25 16.9877 3.20658 18.8835 5.09267C20.7858 6.97983 21.75 9.30467 21.75 12C21.75 14.6704 20.7869 16.9877 18.8857 18.8868C16.9888 20.7858 14.6726 21.75 12 21.75C9.3025 21.75 6.97875 20.7858 5.09267 18.8835C3.20658 16.9866 2.25 14.6704 2.25 12C2.25 9.30467 3.20767 6.97983 5.09592 5.09375C6.98092 3.20767 9.30358 2.25 12 2.25ZM13.0833 19.5053C14.7148 19.2919 16.1221 18.5888 17.3538 17.3549C18.8542 15.8556 19.5833 14.1028 19.5833 12C19.5833 9.87342 18.8553 8.11625 17.3571 6.62992C15.8588 5.14033 14.1071 4.41667 12 4.41667C9.87017 4.41667 8.113 5.13925 6.62883 6.62667C5.13925 8.113 4.41667 9.87017 4.41667 12C4.41667 14.106 5.14033 15.8588 6.62992 17.3582C7.85517 18.5921 9.26783 19.2963 10.9167 19.5075V14.1667H8.75V12H10.9167V10.7325C10.9167 9.87342 11.1875 9.14975 11.7248 8.55717C12.2622 7.96242 12.9327 7.66667 13.7366 7.66667H15.25V9.83333H13.7344C13.649 9.83319 13.5643 9.8499 13.4853 9.8825C13.4064 9.9151 13.3346 9.96296 13.2741 10.0233C13.2136 10.0837 13.1656 10.1554 13.1329 10.2343C13.1002 10.3133 13.0833 10.3979 13.0833 10.4833V12H15.25V14.1667H13.0833V19.5053Z" fill="white"/>
</svg>
