<svg width="24" height="24" viewBox="0 0 24 24" fill="none" xmlns="http://www.w3.org/2000/svg">
<path d="M23.5 12C23.5 5.37188 18.352 0 12 0C5.64805 0 0.5 5.37188 0.5 12C0.5 17.9906 4.70469 22.9547 10.2031 23.8547V15.4688H7.2832V12H10.2031V9.35625C10.2031 6.34922 11.9191 4.6875 14.5471 4.6875C15.8049 4.6875 17.1211 4.92188 17.1211 4.92188V7.875H15.6701C14.2416 7.875 13.7969 8.80078 13.7969 9.75V12H16.9863L16.4765 15.4688H13.7969V23.8547C19.2953 22.9547 23.5 17.9906 23.5 12Z" fill="#1E1E1E"/>
<path d="M16.4765 15.4688L16.9863 12H13.7969V9.75C13.7969 8.80078 14.2416 7.875 15.6701 7.875H17.1211V4.92188C17.1211 4.92188 15.8049 4.6875 14.5471 4.6875C11.9191 4.6875 10.2031 6.34922 10.2031 9.35625V12H7.2832V15.4688H10.2031V23.8547C10.7894 23.9508 11.3891 24 12 24C12.6109 24 13.2106 23.9508 13.7969 23.8547V15.4688H16.4765Z" fill="white"/>
</svg>
