<svg width="45" height="44" viewBox="0 0 45 44" fill="none" xmlns="http://www.w3.org/2000/svg">
<path d="M22.5 35.75C32.3742 35.75 40.375 27.7492 40.375 17.875C40.375 8.00078 32.3742 0 22.5 0C12.6258 0 4.625 8.00078 4.625 17.875C4.625 27.7492 12.6258 35.75 22.5 35.75ZM20.5922 8.37031V6.92656C20.5922 6.13594 21.2281 5.5 22.0187 5.5H22.9727C23.7633 5.5 24.3992 6.13594 24.3992 6.92656V8.3875C25.7313 8.45625 27.0203 8.91172 28.0945 9.71094C28.5758 10.0633 28.6273 10.768 28.1977 11.1805L26.7969 12.5125C26.4703 12.8305 25.9805 12.8391 25.5938 12.5984C25.1297 12.3063 24.6141 12.1602 24.0641 12.1602H20.7211C19.9477 12.1602 19.3203 12.8648 19.3203 13.7328C19.3203 14.4375 19.75 15.0648 20.3602 15.2453L25.7141 16.8523C27.9227 17.5141 29.4695 19.6367 29.4695 22.0172C29.4695 24.9391 27.2008 27.3023 24.3906 27.3797V28.8234C24.3906 29.6141 23.7547 30.25 22.9641 30.25H22.0102C21.2195 30.25 20.5836 29.6141 20.5836 28.8234V27.3625C19.2516 27.2937 17.9625 26.8383 16.8883 26.0391C16.407 25.6867 16.3555 24.982 16.7852 24.5695L18.1859 23.2375C18.5125 22.9195 19.0023 22.9109 19.3891 23.1516C19.8531 23.4437 20.3688 23.5898 20.9188 23.5898H24.2617C25.0352 23.5898 25.6625 22.8852 25.6625 22.0172C25.6625 21.3125 25.2328 20.6852 24.6227 20.5047L19.2687 18.8977C17.0602 18.2359 15.5133 16.1133 15.5133 13.7328C15.5219 10.8109 17.782 8.44766 20.5922 8.37031ZM41.75 30.25H38.957C37.2727 32.4844 35.1242 34.3492 32.6836 35.75H38.1664C38.6219 35.75 38.9914 36.0594 38.9914 36.4375V37.8125C38.9914 38.1906 38.6219 38.5 38.1664 38.5H6.825C6.36953 38.5 6 38.1906 6 37.8125V36.4375C6 36.0594 6.36953 35.75 6.825 35.75H12.3078C9.86719 34.3492 7.72734 32.4844 6.03438 30.25H3.25C1.72891 30.25 0.5 31.4789 0.5 33V41.25C0.5 42.7711 1.72891 44 3.25 44H41.75C43.2711 44 44.5 42.7711 44.5 41.25V33C44.5 31.4789 43.2711 30.25 41.75 30.25Z" fill="#0AA884"/>
<path d="M30.9692 38.2183C30.9692 36.7658 32.1467 35.5884 33.5991 35.5884H39.0615C40.514 35.5884 41.6914 36.7658 41.6914 38.2183C41.6914 39.6707 40.514 40.8481 39.0615 40.8481H33.5991C32.1467 40.8481 30.9692 39.6707 30.9692 38.2183Z" fill="#0AA884"/>
<path d="M3.27849 38.2183C3.27849 36.7658 4.45593 35.5884 5.90837 35.5884H11.3708C12.8232 35.5884 14.0007 36.7658 14.0007 38.2183C14.0007 39.6707 12.8232 40.8481 11.3708 40.8481H5.90837C4.45593 40.8481 3.27849 39.6707 3.27849 38.2183Z" fill="#0AA884"/>
</svg>
