<svg width="54" height="55" viewBox="0 0 54 55" fill="none" xmlns="http://www.w3.org/2000/svg">
<path d="M26.9995 44.1717C38.9747 44.1717 48.6779 34.4685 48.6779 22.4933C48.6779 10.5181 38.9747 0.81488 26.9995 0.81488C15.0242 0.81488 5.32107 10.5181 5.32107 22.4933C5.32107 34.4685 15.0242 44.1717 26.9995 44.1717ZM24.6857 10.9662V9.21526C24.6857 8.25641 25.457 7.48516 26.4158 7.48516H27.5727C28.5316 7.48516 29.3028 8.25641 29.3028 9.21526V10.9871C30.9183 11.0704 32.4816 11.6228 33.7844 12.5921C34.3681 13.0194 34.4306 13.874 33.9095 14.3743L32.2106 15.9898C31.8146 16.3754 31.2205 16.3858 30.7515 16.094C30.1887 15.7396 29.5634 15.5625 28.8963 15.5625H24.8421C23.9041 15.5625 23.1432 16.4171 23.1432 17.4697C23.1432 18.3244 23.6643 19.0852 24.4043 19.3041L30.8974 21.253C33.576 22.0556 35.452 24.6299 35.452 27.5168C35.452 31.0604 32.7005 33.9266 29.2924 34.0204V35.7713C29.2924 36.7302 28.5211 37.5014 27.5623 37.5014H26.4054C25.4466 37.5014 24.6753 36.7302 24.6753 35.7713V33.9995C23.0598 33.9161 21.4965 33.3638 20.1937 32.3945C19.6101 31.9672 19.5475 31.1125 20.0686 30.6123L21.7675 28.9968C22.1635 28.6112 22.7576 28.6008 23.2266 28.8926C23.7894 29.247 24.4147 29.4241 25.0818 29.4241H29.1361C30.0741 29.4241 30.8349 28.5695 30.8349 27.5168C30.8349 26.6622 30.3138 25.9014 29.5738 25.6825L23.0807 23.7335C20.4022 22.931 18.5261 20.3567 18.5261 17.4697C18.5366 13.9262 21.2776 11.06 24.6857 10.9662ZM50.3455 37.5014H46.9582C44.9154 40.2112 42.3099 42.4729 39.3499 44.1717H45.9994C46.5517 44.1717 46.9999 44.5469 46.9999 45.0055V46.6731C46.9999 47.1316 46.5517 47.5068 45.9994 47.5068H7.98918C7.4368 47.5068 6.98864 47.1316 6.98864 46.6731V45.0055C6.98864 44.5469 7.4368 44.1717 7.98918 44.1717H14.6386C11.6787 42.4729 9.08352 40.2112 7.03033 37.5014H3.6535C1.80875 37.5014 0.318359 38.9918 0.318359 40.8366V50.842C0.318359 52.6867 1.80875 54.1771 3.6535 54.1771H50.3455C52.1902 54.1771 53.6806 52.6867 53.6806 50.842V40.8366C53.6806 38.9918 52.1902 37.5014 50.3455 37.5014Z" fill="white"/>
</svg>
