<svg width="24" height="24" viewBox="0 0 24 24" fill="none" xmlns="http://www.w3.org/2000/svg">
<path fill-rule="evenodd" clip-rule="evenodd" d="M12 24C18.6274 24 24 18.6274 24 12C24 5.37259 18.6274 0 12 0C5.37258 0 0 5.37259 0 12C0 18.6274 5.37258 24 12 24ZM15.8944 6.71854C16.0589 6.60864 16.2522 6.55 16.45 6.55C16.7152 6.55 16.9696 6.65535 17.1571 6.8429C17.3446 7.03043 17.45 7.28479 17.45 7.55C17.45 7.74779 17.3913 7.94112 17.2815 8.10558C17.1716 8.27002 17.0154 8.39819 16.8327 8.47388C16.65 8.54956 16.4489 8.56937 16.2549 8.53079C16.0609 8.4922 15.8827 8.39696 15.7429 8.25711C15.603 8.11725 15.5078 7.93907 15.4692 7.74509C15.4306 7.5511 15.4504 7.35004 15.5261 7.16731C15.6018 6.98459 15.73 6.82841 15.8944 6.71854ZM19.9 6.54167C20.1376 7.19116 20.2671 7.87524 20.2833 8.56667C20.3333 9.45 20.3333 9.73334 20.3333 12C20.3333 13.3955 20.3144 14.0392 20.2998 14.5341C20.2907 14.843 20.2833 15.0938 20.2833 15.4333C20.2671 16.1248 20.1376 16.8088 19.9 17.4583C19.6903 18.0152 19.3602 18.5188 18.9333 18.9333C18.5207 19.3605 18.0163 19.6882 17.4583 19.8917C16.8105 20.1365 16.1257 20.269 15.4333 20.2833C14.55 20.3333 14.2667 20.3333 12 20.3333C9.73333 20.3333 9.45 20.3333 8.56667 20.2833C7.87429 20.269 7.18945 20.1365 6.54166 19.8917C5.98473 19.6861 5.48078 19.3587 5.06667 18.9333C4.63952 18.5207 4.31181 18.0163 4.10833 17.4583C3.86346 16.8105 3.73101 16.1257 3.71667 15.4333C3.66666 14.55 3.66666 14.2667 3.66666 12C3.66666 9.73334 3.66666 9.45 3.71667 8.56667C3.73101 7.8743 3.86346 7.18945 4.10833 6.54167C4.31181 5.9837 4.63952 5.47931 5.06667 5.06667C5.48078 4.6413 5.98473 4.31387 6.54166 4.10834C7.18945 3.86346 7.87429 3.731 8.56667 3.71666C9.45 3.66667 9.73333 3.66667 12 3.66667C14.2667 3.66667 14.55 3.66667 15.4333 3.71666C16.1257 3.731 16.8105 3.86346 17.4583 4.10834C18.0163 4.31181 18.5207 4.63953 18.9333 5.06667C19.3583 5.48273 19.6881 5.98595 19.9 6.54167ZM18.5 16.8833C18.6815 16.3864 18.7773 15.8623 18.7833 15.3333C18.825 14.5 18.8333 14.1917 18.8333 12C18.8333 9.80833 18.825 9.5 18.7833 8.66667C18.7811 8.12648 18.6852 7.59077 18.5 7.08333C18.3615 6.73561 18.1481 6.42265 17.875 6.16667C17.6019 5.86903 17.262 5.64055 16.8833 5.5C16.3864 5.31854 15.8623 5.22273 15.3333 5.21666C14.5 5.16667 14.1917 5.16667 12 5.16667C10.6443 5.16667 10.0092 5.18579 9.52474 5.20038C9.226 5.20938 8.98452 5.21666 8.66666 5.21666C8.12666 5.2209 7.59129 5.3167 7.08334 5.5C6.73274 5.65257 6.41985 5.88014 6.16666 6.16667C5.88022 6.41805 5.65504 6.7316 5.50833 7.08333C5.31912 7.58995 5.22041 8.12589 5.21667 8.66667C5.16666 9.5 5.16666 9.80833 5.16666 12C5.16666 13.3557 5.1858 13.9908 5.20039 14.4753C5.20939 14.774 5.21667 15.0155 5.21667 15.3333C5.2337 15.8766 5.34655 16.4126 5.55 16.9167C5.67904 17.2793 5.89008 17.6073 6.16666 17.875C6.42613 18.144 6.73815 18.3567 7.08334 18.5C7.60383 18.6757 8.15074 18.7603 8.7 18.75C9.53333 18.8 9.84167 18.8 12.0333 18.8C14.225 18.8 14.5333 18.7917 15.3667 18.75C15.8956 18.7439 16.4198 18.6481 16.9167 18.4667C17.2777 18.3304 17.6047 18.1171 17.875 17.8417C18.1532 17.5737 18.3669 17.246 18.5 16.8833ZM9.62721 8.44951C10.3291 7.97878 11.1548 7.72665 12 7.72501C12.5624 7.72281 13.1197 7.83182 13.6398 8.04578C14.16 8.25974 14.6327 8.57442 15.0307 8.97171C15.4288 9.369 15.7444 9.84109 15.9594 10.3608C16.1743 10.8805 16.2844 11.4376 16.2833 12C16.2833 12.8452 16.0328 13.6714 15.5634 14.3742C15.0941 15.077 14.4269 15.625 13.6462 15.9488C12.8656 16.2726 12.0064 16.3577 11.1774 16.1935C10.3483 16.0292 9.58659 15.6228 8.9884 15.0258C8.3902 14.4288 7.98238 13.6678 7.8165 12.8391C7.6506 12.0104 7.73408 11.1511 8.05636 10.3698C8.37865 9.5885 8.92529 8.92026 9.62721 8.44951ZM10.4583 14.3073C10.9146 14.6122 11.4512 14.775 12 14.775C12.3644 14.775 12.7253 14.7032 13.0619 14.5638C13.3986 14.4243 13.7045 14.2199 13.9622 13.9622C14.2199 13.7045 14.4243 13.3986 14.5638 13.062C14.7032 12.7253 14.775 12.3644 14.775 12C14.775 11.4512 14.6123 10.9146 14.3073 10.4583C14.0024 10.002 13.569 9.64627 13.0619 9.43623C12.5549 9.2262 11.9969 9.17125 11.4586 9.27832C10.9203 9.38539 10.4259 9.64969 10.0378 10.0378C9.64969 10.4259 9.38539 10.9203 9.27832 11.4586C9.17125 11.9969 9.2262 12.5549 9.43623 13.062C9.64627 13.569 10.0019 14.0024 10.4583 14.3073Z" fill="white"/>
</svg>
