<svg width="25" height="24" viewBox="0 0 25 24" fill="none" xmlns="http://www.w3.org/2000/svg">
<path fill-rule="evenodd" clip-rule="evenodd" d="M0.5 12C0.5 5.37258 5.87258 0 12.5 0C19.1274 0 24.5 5.37258 24.5 12C24.5 18.6274 19.1274 24 12.5 24C5.87258 24 0.5 18.6274 0.5 12Z" fill="#1E1E1E"/>
<path fill-rule="evenodd" clip-rule="evenodd" d="M12.5007 5.59961C10.7625 5.59961 10.5444 5.60721 9.86174 5.63828C9.1804 5.66948 8.71533 5.77734 8.30839 5.93561C7.88745 6.09908 7.53038 6.31775 7.17464 6.67362C6.81864 7.02936 6.59997 7.38643 6.43597 7.80723C6.2773 8.2143 6.1693 8.67951 6.13863 9.36058C6.1081 10.0433 6.1001 10.2615 6.1001 11.9997C6.1001 13.7378 6.10783 13.9553 6.13876 14.638C6.1701 15.3193 6.27797 15.7844 6.4361 16.1913C6.5997 16.6123 6.81837 16.9693 7.17424 17.3251C7.52985 17.6811 7.88692 17.9003 8.30759 18.0637C8.71479 18.222 9.18 18.3299 9.8612 18.3611C10.5439 18.3921 10.7619 18.3997 12.4999 18.3997C14.2382 18.3997 14.4557 18.3921 15.1383 18.3611C15.8197 18.3299 16.2853 18.222 16.6925 18.0637C17.1133 17.9003 17.4698 17.6811 17.8254 17.3251C18.1814 16.9693 18.4001 16.6123 18.5641 16.1915C18.7214 15.7844 18.8294 15.3192 18.8614 14.6381C18.8921 13.9554 18.9001 13.7378 18.9001 11.9997C18.9001 10.2615 18.8921 10.0434 18.8614 9.36071C18.8294 8.67937 18.7214 8.2143 18.5641 7.80737C18.4001 7.38643 18.1814 7.02936 17.8254 6.67362C17.4694 6.31762 17.1134 6.09895 16.6921 5.93561C16.2841 5.77734 15.8187 5.66948 15.1374 5.63828C14.4547 5.60721 14.2374 5.59961 12.4987 5.59961H12.5007ZM11.9265 6.75294C12.0969 6.75267 12.2871 6.75294 12.5007 6.75294C14.2095 6.75294 14.412 6.75907 15.0868 6.78974C15.7108 6.81827 16.0495 6.92254 16.2751 7.01014C16.5738 7.12614 16.7867 7.26481 17.0106 7.48881C17.2346 7.71281 17.3733 7.92615 17.4895 8.22482C17.5771 8.45015 17.6815 8.78882 17.7099 9.41283C17.7406 10.0875 17.7473 10.2902 17.7473 11.9982C17.7473 13.7062 17.7406 13.9089 17.7099 14.5836C17.6814 15.2076 17.5771 15.5462 17.4895 15.7716C17.3735 16.0702 17.2346 16.2829 17.0106 16.5068C16.7866 16.7308 16.5739 16.8694 16.2751 16.9854C16.0498 17.0734 15.7108 17.1774 15.0868 17.206C14.4122 17.2366 14.2095 17.2433 12.5007 17.2433C10.7917 17.2433 10.5892 17.2366 9.91451 17.206C9.2905 17.1772 8.95183 17.0729 8.7261 16.9853C8.42743 16.8693 8.21409 16.7306 7.99009 16.5066C7.76609 16.2826 7.62742 16.0698 7.51115 15.771C7.42355 15.5457 7.31915 15.207 7.29075 14.583C7.26008 13.9083 7.25395 13.7057 7.25395 11.9966C7.25395 10.2875 7.26008 10.0859 7.29075 9.41123C7.31928 8.78722 7.42355 8.44855 7.51115 8.22295C7.62715 7.92428 7.76609 7.71095 7.99009 7.48694C8.21409 7.26294 8.42743 7.12427 8.7261 7.00801C8.9517 6.92001 9.2905 6.816 9.91451 6.78734C10.5049 6.76067 10.7337 6.75267 11.9265 6.75134V6.75294ZM15.917 7.81562C15.493 7.81562 15.149 8.15922 15.149 8.58336C15.149 9.00736 15.493 9.35137 15.917 9.35137C16.341 9.35137 16.685 9.00736 16.685 8.58336C16.685 8.15935 16.341 7.81562 15.917 7.81562ZM12.5007 8.71296C10.6856 8.71296 9.21401 10.1846 9.21401 11.9997C9.21401 13.8147 10.6856 15.2857 12.5007 15.2857C14.3158 15.2857 15.7869 13.8147 15.7869 11.9997C15.7869 10.1846 14.3158 8.71296 12.5007 8.71296ZM12.5007 9.8663C13.6788 9.8663 14.634 10.8214 14.634 11.9997C14.634 13.1778 13.6788 14.133 12.5007 14.133C11.3224 14.133 10.3673 13.1778 10.3673 11.9997C10.3673 10.8214 11.3224 9.8663 12.5007 9.8663Z" fill="white"/>
</svg>
