<svg width="26" height="24" viewBox="0 0 26 24" fill="none" xmlns="http://www.w3.org/2000/svg">
<path fill-rule="evenodd" clip-rule="evenodd" d="M0.5 12C0.5 5.37258 6.09644 0 13 0C19.9036 0 25.5 5.37258 25.5 12C25.5 18.6274 19.9036 24 13 24C6.09644 24 0.5 18.6274 0.5 12Z" fill="#1E1E1E"/>
<path d="M9.52035 7.41135C9.50197 6.6102 8.90519 6 7.93612 6C6.96704 6 6.3335 6.6102 6.3335 7.41135C6.3335 8.1959 6.94832 8.82367 7.89935 8.82367H7.91745C8.90519 8.82367 9.52035 8.1959 9.52035 7.41135Z" fill="white"/>
<path d="M9.33378 9.93896H6.50101V18.1098H9.33378V9.93896Z" fill="white"/>
<path d="M16.2883 9.74707C18.1524 9.74707 19.5499 10.9151 19.5499 13.4249L19.5497 18.1098H16.7171V13.7384C16.7171 12.6404 16.3072 11.8911 15.2817 11.8911C14.4991 11.8911 14.0329 12.3962 13.8282 12.8841C13.7533 13.0589 13.7349 13.3025 13.7349 13.5467V18.11H10.9018C10.9018 18.11 10.9391 10.7059 10.9018 9.93915H13.7349V11.0965C14.1109 10.5401 14.7842 9.74707 16.2883 9.74707Z" fill="white"/>
</svg>
