<svg width="24" height="24" viewBox="0 0 24 24" fill="none" xmlns="http://www.w3.org/2000/svg">
<path fill-rule="evenodd" clip-rule="evenodd" d="M24 12C24 18.6274 18.6274 24 12 24C5.37259 24 0 18.6274 0 12C0 5.37259 5.37259 0 12 0C18.6274 0 24 5.37259 24 12ZM17 13.13V16.827H14.857V13.377C14.857 12.511 14.547 11.92 13.771 11.92C13.179 11.92 12.826 12.318 12.671 12.704C12.615 12.842 12.6 13.034 12.6 13.226V16.827H10.456C10.456 16.827 10.485 10.985 10.456 10.38H12.6V11.293L12.586 11.314H12.6V11.294C12.885 10.854 13.393 10.228 14.532 10.228C15.942 10.228 17 11.15 17 13.13ZM8.21301 7.271C7.48001 7.271 7 7.75301 7 8.38499C7 9.005 7.466 9.5 8.185 9.5H8.19901C8.94699 9.5 9.41199 9.004 9.41199 8.38499C9.39801 7.75301 8.94699 7.271 8.21301 7.271ZM7.12701 16.827H9.271V10.38H7.12701V16.827ZM17.6569 17.6569C16.1566 19.1572 14.1217 20 12 20C9.87827 20 7.84344 19.1572 6.34314 17.6569C4.84286 16.1566 4 14.1217 4 12C4 9.87827 4.84286 7.84343 6.34314 6.34314C7.84344 4.84285 9.87827 4 12 4C14.1217 4 16.1566 4.84285 17.6569 6.34314C19.1571 7.84343 20 9.87827 20 12C20 14.1217 19.1571 16.1566 17.6569 17.6569ZM2 12C2 17.523 6.47699 22 12 22C17.523 22 22 17.523 22 12C22 6.47701 17.523 2 12 2C6.47699 2 2 6.47701 2 12Z" fill="white"/>
</svg>
