<svg width="264" height="240" viewBox="0 0 264 240" fill="none" xmlns="http://www.w3.org/2000/svg">
<path d="M262.289 96.1624C257.834 60.0938 235.616 44.6942 215.282 25.7507C272.983 79.5568 229.115 184.2 137.308 212.847C98.3821 225 55.5673 220.269 27.9423 194.553C50.2205 215.352 62.0077 229.805 92.3062 236.745C176.275 255.929 272.274 177.076 262.289 96.1624Z" fill="url(#paint0_linear_2_1310)"/>
<path d="M39.9728 205.593C67.6181 231.401 110.453 236.058 149.339 223.905C241.146 195.24 285.034 90.6148 227.333 36.7902C229.196 38.5157 221.257 31.2241 215.181 25.7507C272.882 79.5568 229.014 184.2 137.207 212.847C98.2811 225 55.4664 220.269 27.8413 194.553C36.3273 202.457 43.2741 209.396 50.3019 215.445C47.1019 212.346 43.6791 209.062 39.9728 205.593Z" fill="url(#paint1_linear_2_1310)"/>
<path d="M128.883 95.0121C137.39 96.8675 141.035 105.309 136.985 113.566C132.934 121.822 122.828 127.166 114.321 125.31C105.815 123.455 102.17 114.995 106.22 106.627C110.271 98.259 120.377 93.0639 128.883 95.0121Z" fill="url(#paint2_linear_2_1310)"/>
<path d="M172.691 3.8572C232.417 17.4942 257.915 76.217 229.703 134.847C201.49 193.477 130.2 230.084 70.4942 216.484C10.7885 202.884 -14.7303 144.124 13.5024 85.4939C41.735 26.8639 112.985 -9.77985 172.691 3.8572ZM82.1194 192.271C128.235 202.791 183.384 174.571 205.116 129.188C226.847 83.8055 207.141 38.5343 161.065 27.9957C114.99 17.4571 59.9019 45.696 38.0895 91.0786C16.277 136.461 36.0642 181.732 82.1194 192.271Z" fill="url(#paint3_linear_2_1310)"/>
<path d="M138.341 75.3264C157.946 79.7979 166.25 99.0196 156.994 118.241C147.739 137.463 124.428 149.43 104.863 144.959C85.2988 140.487 76.9343 121.284 86.1899 102.062C95.4455 82.8407 118.777 70.8735 138.341 75.3264ZM114.321 125.31C122.828 127.166 132.974 122.045 137.005 113.659C141.035 105.272 137.389 96.9602 128.903 95.1048C120.417 93.2494 110.23 98.3702 106.22 106.719C102.21 115.069 105.835 123.418 114.321 125.403V125.31Z" fill="url(#paint4_linear_2_1310)"/>
<path d="M149.521 52.0971C182.128 59.5186 196.103 91.561 180.65 123.641C165.197 155.72 126.291 175.591 93.6837 168.17C61.0764 160.748 47.1019 128.669 62.5549 96.6076C78.0079 64.5467 116.894 44.6385 149.521 52.0971ZM104.863 144.959C124.428 149.43 147.759 137.537 156.994 118.241C166.23 98.9454 157.946 79.7979 138.341 75.3264C118.737 70.855 95.4254 82.748 86.1901 102.062C76.9547 121.377 85.299 140.487 104.863 144.959Z" fill="url(#paint5_linear_2_1310)"/>
<path d="M161.065 28.0328C207.181 38.5714 226.908 83.8798 205.115 129.225C183.323 174.571 128.154 202.791 82.1192 192.308C36.0842 181.825 16.297 136.443 38.0892 91.0787C59.8814 45.7146 114.949 17.5128 161.065 28.0328ZM93.6836 168.225C126.291 175.647 165.237 155.702 180.65 123.696C196.062 91.6909 182.128 59.5929 149.521 52.1528C116.914 44.7127 77.9673 64.658 62.5548 96.6819C47.1423 128.706 61.0763 160.785 93.6836 168.244V168.225Z" fill="url(#paint6_linear_2_1310)"/>
<path style="mix-blend-mode:multiply" d="M81.1068 200.899C21.401 187.262 -4.07723 128.613 24.1149 69.9087C25.7351 66.5443 27.4904 63.2603 29.3807 60.0566C23.1334 67.9917 17.8116 76.505 13.5024 85.4568C-14.7303 144.161 10.7885 202.81 70.4942 216.447C126.797 229.304 193.349 197.559 224.417 144.699C190.351 188.041 131.618 212.513 81.1068 200.899Z" fill="url(#paint7_linear_2_1310)"/>
<g style="mix-blend-mode:screen">
<path d="M13.5022 91.4676C41.7146 32.782 112.985 -3.76903 172.711 9.86801C214.776 19.5531 239.87 51.4471 241.146 90.0575C242.401 48.8124 216.842 13.987 172.691 3.87513C112.985 -9.76191 41.7146 26.7705 13.5022 85.5119C5.57924 101.434 1.64852 118.779 1.99853 136.275C2.62632 120.797 6.53338 105.579 13.5022 91.4676Z" fill="#303957"/>
</g>
<path style="mix-blend-mode:screen" d="M5.62323 134.977C33.8356 76.2912 105.106 39.7402 164.812 53.3402C204.73 62.4687 229.358 91.7094 232.882 127.555C255.768 71.5044 229.965 16.9376 172.69 3.85719C112.984 -9.77986 41.714 26.7526 13.5016 85.4939C4.65126 103.223 0.846916 122.717 2.44352 142.157C3.41566 139.782 4.46882 137.389 5.62323 134.977Z" fill="url(#paint8_linear_2_1310)"/>
<g style="mix-blend-mode:multiply">
<g style="mix-blend-mode:multiply" opacity="0.92">
<path d="M113.997 110.282C110.109 114.382 107.03 119.819 108.286 121.192C109.542 122.564 114.828 119.577 118.716 115.458C122.605 111.339 124.792 106.682 123.638 105.309C122.483 103.936 117.866 106.163 113.997 110.282Z" fill="#505359"/>
</g>
<g style="mix-blend-mode:multiply" opacity="0.92">
<path d="M114.22 110.17C110.433 114.178 107.435 119.447 108.671 120.783C109.906 122.119 115.01 119.206 118.797 115.217C122.585 111.228 124.873 106.664 123.618 105.328C122.362 103.992 118.028 106.163 114.22 110.17Z" fill="#4F5258"/>
</g>
<g style="mix-blend-mode:multiply" opacity="0.93">
<path d="M114.463 110.078C110.736 113.993 107.861 119.058 109.055 120.357C110.25 121.655 115.131 118.854 118.898 114.939C122.665 111.024 124.792 106.608 123.617 105.309C122.443 104.011 118.169 106.163 114.463 110.078Z" fill="#4E5157"/>
</g>
<g style="mix-blend-mode:multiply" opacity="0.93">
<path d="M114.686 109.985C111.061 113.696 108.286 118.668 109.44 119.93C110.595 121.191 115.354 118.483 118.979 114.679C122.605 110.876 124.752 106.59 123.597 105.402C122.443 104.215 118.311 106.163 114.686 109.985Z" fill="#4D5056"/>
</g>
<g style="mix-blend-mode:multiply" opacity="0.94">
<path d="M114.929 109.874C111.385 113.584 108.691 118.297 109.805 119.503C110.919 120.709 115.537 118.112 119.061 114.401C122.585 110.69 124.712 106.553 123.598 105.328C122.484 104.103 118.453 106.163 114.929 109.874Z" fill="#4C4F55"/>
</g>
<g style="mix-blend-mode:multiply" opacity="0.94">
<path d="M115.151 109.781C111.688 113.399 109.076 117.926 110.189 119.058C111.303 120.19 115.698 117.722 119.162 114.104C122.625 110.486 124.65 106.478 123.577 105.309C122.503 104.141 118.615 106.163 115.151 109.781Z" fill="#4B4E54"/>
</g>
<g style="mix-blend-mode:multiply" opacity="0.95">
<path d="M115.415 109.688C112.053 113.195 109.582 117.536 110.615 118.668C111.648 119.8 115.921 117.388 119.283 113.881C122.645 110.375 124.65 106.46 123.617 105.347C122.584 104.233 118.757 106.181 115.415 109.688Z" fill="#4A4D53"/>
</g>
<g style="mix-blend-mode:multiply" opacity="0.96">
<path d="M115.618 109.577C112.337 112.991 109.967 117.165 110.96 118.241C111.952 119.318 116.043 117.017 119.344 113.622C122.646 110.226 124.57 106.441 123.557 105.365C122.544 104.289 118.899 106.182 115.618 109.577Z" fill="#494B52"/>
</g>
<g style="mix-blend-mode:multiply" opacity="0.96">
<path d="M115.84 109.484C112.64 112.805 110.372 116.776 111.364 117.889C112.357 119.002 116.245 116.739 119.466 113.417C122.686 110.096 124.569 106.478 123.516 105.439C122.463 104.4 119.04 106.181 115.84 109.484Z" fill="#484A51"/>
</g>
<g style="mix-blend-mode:multiply" opacity="0.97">
<path d="M116.084 109.391C112.965 112.601 110.798 116.405 111.729 117.407C112.661 118.408 116.408 116.293 119.527 113.084C122.646 109.874 124.468 106.386 123.577 105.384C122.686 104.382 119.203 106.182 116.084 109.391Z" fill="#464950"/>
</g>
<g style="mix-blend-mode:multiply" opacity="0.97">
<path d="M116.306 109.299C113.268 112.323 111.223 116.034 112.114 116.98C113.005 117.926 116.57 115.922 119.608 112.824C122.646 109.725 124.428 106.349 123.537 105.402C122.646 104.456 119.344 106.182 116.306 109.299Z" fill="#45484F"/>
</g>
<g style="mix-blend-mode:multiply" opacity="0.98">
<path d="M116.549 109.187C113.592 112.193 111.648 115.644 112.499 116.609C113.349 117.574 116.752 115.625 119.689 112.601C122.625 109.577 124.387 106.367 123.516 105.458C122.646 104.549 119.466 106.182 116.549 109.187Z" fill="#44474E"/>
</g>
<g style="mix-blend-mode:multiply" opacity="0.98">
<path d="M116.772 109.094C113.916 112.007 112.053 115.254 112.883 116.126C113.714 116.998 116.934 115.199 119.789 112.286C122.645 109.373 124.346 106.274 123.516 105.402C122.686 104.53 119.627 106.181 116.772 109.094Z" fill="#43464D"/>
</g>
<g style="mix-blend-mode:multiply" opacity="0.99">
<path d="M116.995 109.002C114.22 111.803 112.479 114.883 113.269 115.7C114.058 116.516 117.096 114.828 119.871 111.989C122.646 109.15 124.286 106.2 123.517 105.384C122.747 104.567 119.79 106.2 116.995 109.002Z" fill="#42454C"/>
</g>
<g style="mix-blend-mode:multiply" opacity="0.99">
<path d="M117.238 108.89C114.545 111.599 112.904 114.456 113.654 115.291C114.403 116.126 117.279 114.456 119.972 111.766C122.666 109.076 124.246 106.2 123.496 105.421C122.747 104.642 119.932 106.2 117.238 108.89Z" fill="#41444B"/>
</g>
<g style="mix-blend-mode:multiply">
<path d="M117.44 108.798C114.828 111.414 113.39 114.122 114.018 114.865C114.645 115.607 117.42 114.104 120.093 111.488C122.767 108.872 124.245 106.181 123.536 105.439C122.828 104.697 120.073 106.2 117.44 108.798Z" fill="#40434A"/>
</g>
</g>
<g style="mix-blend-mode:multiply" opacity="0.6">
<path d="M122.909 105.792C123.435 106.367 122.787 107.647 121.43 108.705C120.073 109.762 118.554 110.078 118.028 109.484C117.501 108.89 118.17 107.629 119.506 106.571C120.843 105.514 122.382 105.198 122.909 105.792Z" fill="#694949"/>
</g>
<path style="mix-blend-mode:screen" d="M43.3147 13.2083C38.2109 8.29153 32.8844 5.36003 31.3857 6.65879C29.8869 7.95756 32.8236 12.9856 37.9274 17.8838C43.0311 22.782 48.3374 25.7321 49.8361 24.4333C51.3348 23.1346 48.3982 18.1065 43.3147 13.2083Z" fill="url(#paint9_radial_2_1310)"/>
<g style="mix-blend-mode:color">
<path d="M0.98291 133.531C7.0763 30.756 91.5374 6.58554 132.498 3.03107C186.933 -9.96815 232.87 40.0992 251.827 63.4571C269.092 97.4785 272.849 169.584 196.479 216.3C152.831 242.999 110.723 243.76 80.1969 233.056C57.3118 225.032 41.6035 209.478 32.9732 199.543C6.56851 183.7 2.84478 147.918 0.98291 133.531Z" fill="#1CB694"/>
</g>
<defs>
<linearGradient id="paint0_linear_2_1310" x1="255.383" y1="54.0267" x2="99.3892" y2="255.252" gradientUnits="userSpaceOnUse">
<stop stop-color="#D6D6D6"/>
<stop offset="0.06" stop-color="#CECECE"/>
<stop offset="0.15" stop-color="#B7B7B7"/>
<stop offset="0.27" stop-color="#939393"/>
<stop offset="0.34" stop-color="#787878"/>
<stop offset="1" stop-color="#545454"/>
</linearGradient>
<linearGradient id="paint1_linear_2_1310" x1="252.507" y1="47.069" x2="98.3036" y2="246.336" gradientUnits="userSpaceOnUse">
<stop stop-color="#0052FF"/>
<stop offset="0.44" stop-color="#002169"/>
<stop offset="0.79" stop-color="#001036"/>
<stop offset="1" stop-color="#000517"/>
</linearGradient>
<linearGradient id="paint2_linear_2_1310" x1="132.407" y1="94.8265" x2="115.439" y2="123.477" gradientUnits="userSpaceOnUse">
<stop stop-color="#EE0000"/>
<stop offset="0.02" stop-color="#EA0000"/>
<stop offset="0.5" stop-color="#880000"/>
<stop offset="0.84" stop-color="#4B0000"/>
<stop offset="1" stop-color="#330000"/>
</linearGradient>
<linearGradient id="paint3_linear_2_1310" x1="141.906" y1="0.443296" x2="108.68" y2="214.42" gradientUnits="userSpaceOnUse">
<stop stop-color="#006EFF"/>
<stop offset="0.16" stop-color="#0068F5"/>
<stop offset="0.44" stop-color="#0058D9"/>
<stop offset="0.81" stop-color="#003DAC"/>
<stop offset="1" stop-color="#002E91"/>
</linearGradient>
<linearGradient id="paint4_linear_2_1310" x1="139.921" y1="78.4806" x2="103.68" y2="153.101" gradientUnits="userSpaceOnUse">
<stop stop-color="white"/>
<stop offset="0.36" stop-color="#DCDCDC"/>
<stop offset="1" stop-color="#A3A3A3"/>
</linearGradient>
<linearGradient id="paint5_linear_2_1310" x1="9084.27" y1="14.7742" x2="7332.39" y2="11345.9" gradientUnits="userSpaceOnUse">
<stop stop-color="#006EFF"/>
<stop offset="0.16" stop-color="#0068F5"/>
<stop offset="0.44" stop-color="#0058D9"/>
<stop offset="0.81" stop-color="#003DAC"/>
<stop offset="1" stop-color="#002E91"/>
</linearGradient>
<linearGradient id="paint6_linear_2_1310" x1="12425.1" y1="2692.39" x2="9864.1" y2="17710.2" gradientUnits="userSpaceOnUse">
<stop stop-color="white"/>
<stop offset="0.36" stop-color="#DCDCDC"/>
<stop offset="1" stop-color="#A3A3A3"/>
</linearGradient>
<linearGradient id="paint7_linear_2_1310" x1="136.478" y1="81.2451" x2="79.0261" y2="213.212" gradientUnits="userSpaceOnUse">
<stop stop-color="white"/>
<stop offset="0.62" stop-color="#E2E5EE"/>
<stop offset="1" stop-color="#CFD4E3"/>
</linearGradient>
<linearGradient id="paint8_linear_2_1310" x1="141.966" y1="-0.0020025" x2="122.007" y2="128.596" gradientUnits="userSpaceOnUse">
<stop offset="0.03" stop-color="#173466"/>
<stop offset="0.09" stop-color="#152F5D"/>
<stop offset="0.36" stop-color="#0C1B35"/>
<stop offset="0.62" stop-color="#050C18"/>
<stop offset="0.84" stop-color="#010306"/>
<stop offset="1"/>
</linearGradient>
<radialGradient id="paint9_radial_2_1310" cx="0" cy="0" r="1" gradientUnits="userSpaceOnUse" gradientTransform="translate(1534.97 -2495.74) rotate(-40.9117) scale(33.712 126.433)">
<stop stop-color="#6B2424"/>
<stop offset="1"/>
</radialGradient>
</defs>
</svg>
