<svg width="69" height="65" viewBox="0 0 69 65" fill="none" xmlns="http://www.w3.org/2000/svg">
<path d="M34.5 0C26.6462 0 20.125 5.1128 20.125 11.5753C20.125 17.7986 26.1761 22.7562 33.6371 23.1159L33.581 23.4029L34.1668 23.9854L34.5 24.0411L35.2674 23.6828L35.3778 23.1159C42.832 22.7503 48.875 17.7944 48.875 11.5753C48.875 5.1128 42.3538 0 34.5 0ZM34.5 1.78082C41.4659 1.78082 46.9583 6.23563 46.9583 11.5753C46.9583 16.9151 41.4659 21.3699 34.5 21.3699C27.5341 21.3699 22.0417 16.9151 22.0417 11.5753C22.0417 6.23563 27.5341 1.78082 34.5 1.78082ZM34.5 3.56164C34.2458 3.56164 34.0021 3.65545 33.8224 3.82244C33.6426 3.98942 33.5417 4.2159 33.5417 4.45205C33.5417 4.68821 33.6426 4.91469 33.8224 5.08167C34.0021 5.24865 34.2458 5.34247 34.5 5.34247C34.7542 5.34247 34.9979 5.24865 35.1776 5.08167C35.3574 4.91469 35.4583 4.68821 35.4583 4.45205C35.4583 4.2159 35.3574 3.98942 35.1776 3.82244C34.9979 3.65545 34.7542 3.56164 34.5 3.56164ZM29.5904 4.52336C29.467 4.53758 29.3437 4.57322 29.2292 4.63466C28.7711 4.88041 28.6147 5.4264 28.8792 5.85202C29.1437 6.27763 29.7294 6.42298 30.1875 6.17723C30.6456 5.93147 30.802 5.38722 30.5375 4.96161C30.3384 4.64239 29.9608 4.4807 29.5904 4.52336ZM39.4096 4.52336C39.039 4.48037 38.659 4.64173 38.4606 4.96161C38.1961 5.38722 38.3525 5.93321 38.8106 6.17897C39.2687 6.42472 39.8563 6.27763 40.1208 5.85202C40.3853 5.4264 40.227 4.88215 39.769 4.6364C39.6544 4.57474 39.5331 4.53769 39.4096 4.52336ZM26.0622 7.13024C25.6916 7.08759 25.3116 7.24928 25.1132 7.56849C24.8487 7.99411 25.007 8.53836 25.4651 8.78411C25.9232 9.02987 26.5089 8.88452 26.7734 8.4589C27.0379 8.03329 26.8815 7.48904 26.4234 7.24328C26.3089 7.18185 26.1857 7.14446 26.0622 7.13024ZM42.936 7.13024C42.8124 7.14453 42.6911 7.18185 42.5766 7.24328C42.1185 7.48904 41.9602 8.03329 42.2247 8.4589C42.4892 8.88452 43.0768 9.02987 43.5349 8.78411C43.993 8.53836 44.1494 7.99411 43.8849 7.56849C43.6866 7.24861 43.3066 7.08738 42.936 7.13024ZM24.9167 11.5753C24.6625 11.5753 24.4187 11.6692 24.239 11.8361C24.0593 12.0031 23.9583 12.2296 23.9583 12.4658C23.9583 12.7019 24.0593 12.9284 24.239 13.0954C24.4187 13.2624 24.6625 13.3562 24.9167 13.3562C25.1708 13.3562 25.4146 13.2624 25.5943 13.0954C25.774 12.9284 25.875 12.7019 25.875 12.4658C25.875 12.2296 25.774 12.0031 25.5943 11.8361C25.4146 11.6692 25.1708 11.5753 24.9167 11.5753ZM44.0833 11.5753C43.8292 11.5753 43.5854 11.6692 43.4057 11.8361C43.226 12.0031 43.125 12.2296 43.125 12.4658C43.125 12.7019 43.226 12.9284 43.4057 13.0954C43.5854 13.2624 43.8292 13.3562 44.0833 13.3562C44.3375 13.3562 44.5813 13.2624 44.761 13.0954C44.9407 12.9284 45.0417 12.7019 45.0417 12.4658C45.0417 12.2296 44.9407 12.0031 44.761 11.8361C44.5813 11.6692 44.3375 11.5753 44.0833 11.5753ZM17.9182 14.7179L17.1508 15.0761L16.9992 15.8604L17.585 16.4448L17.9182 16.4987L18.6856 16.1422L18.8372 15.3561L18.2514 14.7735L17.9182 14.7179ZM50.9994 14.7179L50.232 15.0761L50.0804 15.8604L50.6681 16.4448L50.9994 16.4987L51.7687 16.1422L51.9185 15.3561L51.3326 14.7735L50.9994 14.7179ZM14.7044 16.5926L13.937 16.9509L13.7854 17.7352L14.3713 18.3178L14.7044 18.3734L15.4718 18.0169L15.6235 17.2308L15.0376 16.6483L14.7044 16.5926ZM54.2132 16.5926L53.4458 16.9509L53.2942 17.7352L53.8819 18.3178L54.2132 18.3734L54.9825 18.0169L55.1322 17.2308L54.5464 16.6483L54.2132 16.5926ZM12.7821 19.6308L12.0129 19.989L11.8631 20.7751L12.449 21.3577L12.7821 21.4116L13.5496 21.0551L13.7012 20.269L13.1134 19.6864L12.7821 19.6308ZM56.1374 19.6308L55.37 19.989L55.2183 20.7751L55.8042 21.3577L56.1374 21.4116L56.9048 21.0551L57.0564 20.269L56.4705 19.6864L56.1374 19.6308ZM12.4583 23.1507L11.6909 23.5089L11.5449 24.2654C8.22307 25.0458 5.75 27.8409 5.75 31.1644C5.75 35.0885 9.19317 38.2877 13.4167 38.2877C17.6402 38.2877 21.0833 35.0885 21.0833 31.1644C21.0833 27.2402 17.6402 24.0411 13.4167 24.0411C13.387 24.0411 13.3583 24.0443 13.3287 24.0446L13.3774 23.7889L12.7915 23.2063L12.4583 23.1507ZM56.4593 23.1507L55.6919 23.5089L55.5889 24.0411H55.5833C55.3194 24.0411 55.0582 24.0532 54.8009 24.0776C53.2576 24.224 51.8478 24.7985 50.7112 25.6706C50.1429 26.1067 49.6427 26.6168 49.2288 27.1854C48.8148 27.7539 48.4875 28.3812 48.2629 29.0497C48.1881 29.2725 48.1232 29.4999 48.072 29.7314C48.0208 29.9629 47.9822 30.1985 47.956 30.4374C47.9297 30.6764 47.9167 30.9191 47.9167 31.1644C47.9167 34.8433 50.9426 37.8853 54.8009 38.2512C55.0582 38.2755 55.3194 38.2877 55.5833 38.2877C59.8068 38.2877 63.25 35.0885 63.25 31.1644C63.25 27.7871 60.6973 24.9533 57.2941 24.2272V24.2254L57.3783 23.7889L56.7925 23.2063L56.4593 23.1507ZM13.4167 25.8219C16.6049 25.8219 19.1667 28.2021 19.1667 31.1644C19.1667 34.1267 16.6049 36.5069 13.4167 36.5069C10.2284 36.5069 7.66667 34.1267 7.66667 31.1644C7.66667 28.2021 10.2284 25.8219 13.4167 25.8219ZM34.5 25.8219L33.7326 26.1802L33.581 26.9645L34.1668 27.5471L34.5 27.6027L35.2674 27.2445L35.419 26.4602L34.8332 25.8776L34.5 25.8219ZM55.5833 25.8219C58.7716 25.8219 61.3333 28.2021 61.3333 31.1644C61.3333 34.1267 58.7716 36.5069 55.5833 36.5069C52.3951 36.5069 49.8333 34.1267 49.8333 31.1644C49.8333 30.9792 49.8437 30.7967 49.8633 30.6166C50.1564 27.9142 52.5943 25.8219 55.5833 25.8219ZM34.5 29.3836L33.7326 29.7418L33.6222 30.3157C29.2803 30.7264 25.875 34.1479 25.875 38.2877C25.875 42.7028 29.7481 46.3014 34.5 46.3014C39.2519 46.3014 43.125 42.7028 43.125 38.2877C43.125 34.1432 39.7118 30.7201 35.3629 30.3157L35.419 30.0218L34.8332 29.4392L34.5 29.3836ZM34.5 32.0548C38.2159 32.0548 41.2083 34.8351 41.2083 38.2877C41.2083 41.7402 38.2159 44.5205 34.5 44.5205C30.7841 44.5205 27.7917 41.7402 27.7917 38.2877C27.7917 34.8351 30.7841 32.0548 34.5 32.0548ZM13.4167 40.0685C6.04345 40.0685 0 45.6836 0 52.5342V56.0959H21.3416C20.5638 57.7352 20.125 59.5409 20.125 61.4384V65H48.875V61.4384C48.875 59.5409 48.4362 57.7352 47.6584 56.0959H69V52.5342C69 45.6836 62.9566 40.0685 55.5833 40.0685C50.6718 40.0685 46.36 42.5592 44.0272 46.2475C43.8151 46.5828 43.6197 46.9281 43.4413 47.2822C43.0846 47.9905 42.7971 48.7345 42.5878 49.5065C42.5162 49.7705 42.4668 50.0415 42.4137 50.3117C40.1391 48.9067 37.4184 48.0822 34.5 48.0822C31.5816 48.0822 28.8609 48.9067 26.5863 50.3117C25.4473 44.5103 19.973 40.0685 13.4167 40.0685ZM13.4167 41.8493C19.4016 41.8493 24.3207 46.1522 24.8418 51.5917C23.8958 52.3939 23.0651 53.3073 22.3748 54.3151H1.91667V52.5342C1.91667 46.6556 7.08955 41.8493 13.4167 41.8493ZM55.5833 41.8493C61.9104 41.8493 67.0833 46.6556 67.0833 52.5342V54.3151H46.6252C45.9349 53.3073 45.1042 52.3939 44.1582 51.5917C44.6793 46.1522 49.5984 41.8493 55.5833 41.8493ZM34.5 49.863C41.3553 49.863 46.9583 55.0689 46.9583 61.4384V63.2192H22.0417V61.4384C22.0417 55.0689 27.6447 49.863 34.5 49.863ZM3.83333 50.7534C3.30529 50.7534 2.875 51.1532 2.875 51.6438C2.875 52.1345 3.30529 52.5342 3.83333 52.5342C4.36137 52.5342 4.79167 52.1345 4.79167 51.6438C4.79167 51.1532 4.36137 50.7534 3.83333 50.7534ZM7.66667 50.7534C7.13862 50.7534 6.70833 51.1532 6.70833 51.6438C6.70833 52.1345 7.13862 52.5342 7.66667 52.5342C8.19471 52.5342 8.625 52.1345 8.625 51.6438C8.625 51.1532 8.19471 50.7534 7.66667 50.7534ZM11.5 50.7534C10.972 50.7534 10.5417 51.1532 10.5417 51.6438C10.5417 52.1345 10.972 52.5342 11.5 52.5342C12.028 52.5342 12.4583 52.1345 12.4583 51.6438C12.4583 51.1532 12.028 50.7534 11.5 50.7534ZM15.3333 50.7534C14.8053 50.7534 14.375 51.1532 14.375 51.6438C14.375 52.1345 14.8053 52.5342 15.3333 52.5342C15.8614 52.5342 16.2917 52.1345 16.2917 51.6438C16.2917 51.1532 15.8614 50.7534 15.3333 50.7534ZM19.1667 50.7534C18.6386 50.7534 18.2083 51.1532 18.2083 51.6438C18.2083 52.1345 18.6386 52.5342 19.1667 52.5342C19.6947 52.5342 20.125 52.1345 20.125 51.6438C20.125 51.1532 19.6947 50.7534 19.1667 50.7534ZM23 50.7534C22.472 50.7534 22.0417 51.1532 22.0417 51.6438C22.0417 52.1345 22.472 52.5342 23 52.5342C23.528 52.5342 23.9583 52.1345 23.9583 51.6438C23.9583 51.1532 23.528 50.7534 23 50.7534ZM46 50.7534C45.472 50.7534 45.0417 51.1532 45.0417 51.6438C45.0417 52.1345 45.472 52.5342 46 52.5342C46.528 52.5342 46.9583 52.1345 46.9583 51.6438C46.9583 51.1532 46.528 50.7534 46 50.7534ZM49.8333 50.7534C49.3053 50.7534 48.875 51.1532 48.875 51.6438C48.875 52.1345 49.3053 52.5342 49.8333 52.5342C50.3614 52.5342 50.7917 52.1345 50.7917 51.6438C50.7917 51.1532 50.3614 50.7534 49.8333 50.7534ZM53.6667 50.7534C53.1386 50.7534 52.7083 51.1532 52.7083 51.6438C52.7083 52.1345 53.1386 52.5342 53.6667 52.5342C54.1947 52.5342 54.625 52.1345 54.625 51.6438C54.625 51.1532 54.1947 50.7534 53.6667 50.7534ZM57.5 50.7534C56.972 50.7534 56.5417 51.1532 56.5417 51.6438C56.5417 52.1345 56.972 52.5342 57.5 52.5342C58.028 52.5342 58.4583 52.1345 58.4583 51.6438C58.4583 51.1532 58.028 50.7534 57.5 50.7534ZM61.3333 50.7534C60.8053 50.7534 60.375 51.1532 60.375 51.6438C60.375 52.1345 60.8053 52.5342 61.3333 52.5342C61.8614 52.5342 62.2917 52.1345 62.2917 51.6438C62.2917 51.1532 61.8614 50.7534 61.3333 50.7534ZM65.1667 50.7534C64.6386 50.7534 64.2083 51.1532 64.2083 51.6438C64.2083 52.1345 64.6386 52.5342 65.1667 52.5342C65.6947 52.5342 66.125 52.1345 66.125 51.6438C66.125 51.1532 65.6947 50.7534 65.1667 50.7534ZM24.9167 59.6575C24.3886 59.6575 23.9583 60.0573 23.9583 60.5479C23.9583 61.0386 24.3886 61.4384 24.9167 61.4384C25.4447 61.4384 25.875 61.0386 25.875 60.5479C25.875 60.0573 25.4447 59.6575 24.9167 59.6575ZM28.75 59.6575C28.222 59.6575 27.7917 60.0573 27.7917 60.5479C27.7917 61.0386 28.222 61.4384 28.75 61.4384C29.278 61.4384 29.7083 61.0386 29.7083 60.5479C29.7083 60.0573 29.278 59.6575 28.75 59.6575ZM32.5833 59.6575C32.0553 59.6575 31.625 60.0573 31.625 60.5479C31.625 61.0386 32.0553 61.4384 32.5833 61.4384C33.1114 61.4384 33.5417 61.0386 33.5417 60.5479C33.5417 60.0573 33.1114 59.6575 32.5833 59.6575ZM36.4167 59.6575C35.8886 59.6575 35.4583 60.0573 35.4583 60.5479C35.4583 61.0386 35.8886 61.4384 36.4167 61.4384C36.9447 61.4384 37.375 61.0386 37.375 60.5479C37.375 60.0573 36.9447 59.6575 36.4167 59.6575ZM40.25 59.6575C39.722 59.6575 39.2917 60.0573 39.2917 60.5479C39.2917 61.0386 39.722 61.4384 40.25 61.4384C40.778 61.4384 41.2083 61.0386 41.2083 60.5479C41.2083 60.0573 40.778 59.6575 40.25 59.6575ZM44.0833 59.6575C43.5553 59.6575 43.125 60.0573 43.125 60.5479C43.125 61.0386 43.5553 61.4384 44.0833 61.4384C44.6114 61.4384 45.0417 61.0386 45.0417 60.5479C45.0417 60.0573 44.6114 59.6575 44.0833 59.6575Z" fill="#0AA884"/>
</svg>
