<svg width="52" height="61" viewBox="0 0 52 61" fill="none" xmlns="http://www.w3.org/2000/svg">
<path d="M48.7331 0.803528H42.3331C41.4844 0.803528 40.6705 1.15121 40.0703 1.77008C39.4702 2.38895 39.1331 3.22831 39.1331 4.10353V60.1771H51.9331V4.10353C51.9331 3.22831 51.5959 2.38895 50.9958 1.77008C50.3957 1.15121 49.5818 0.803528 48.7331 0.803528ZM29.5331 20.6035H23.1331C22.2844 20.6035 21.4705 20.9512 20.8703 21.5701C20.2702 22.1889 19.9331 23.0283 19.9331 23.9035V60.1771H32.7331V23.9035C32.7331 23.0283 32.3959 22.1889 31.7958 21.5701C31.1957 20.9512 30.3818 20.6035 29.5331 20.6035ZM10.3331 40.4035H3.93309C3.0844 40.4035 2.27047 40.7512 1.67035 41.3701C1.07023 41.9889 0.733093 42.8283 0.733093 43.7035V60.1771H13.5331V43.7035C13.5331 42.8283 13.1959 41.9889 12.5958 41.3701C11.9957 40.7512 11.1818 40.4035 10.3331 40.4035Z" fill="white"/>
</svg>
