<svg width="38" height="44" viewBox="0 0 38 44" fill="none" xmlns="http://www.w3.org/2000/svg">
<path d="M35.4569 0.399902H30.8024C30.1852 0.399902 29.5932 0.652759 29.1568 1.10285C28.7203 1.55293 28.4751 2.16338 28.4751 2.7999V43.5807H37.7842V2.7999C37.7842 2.16338 37.539 1.55293 37.1026 1.10285C36.6661 0.652759 36.0742 0.399902 35.4569 0.399902ZM21.4933 14.7999H16.8388C16.2215 14.7999 15.6296 15.0528 15.1931 15.5028C14.7567 15.9529 14.5115 16.5634 14.5115 17.1999V43.5807H23.8206V17.1999C23.8206 16.5634 23.5754 15.9529 23.1389 15.5028C22.7025 15.0528 22.1105 14.7999 21.4933 14.7999ZM7.52967 29.1999H2.87512C2.25789 29.1999 1.66594 29.4528 1.22949 29.9028C0.793046 30.3529 0.547852 30.9634 0.547852 31.5999V43.5807H9.85694V31.5999C9.85694 30.9634 9.61175 30.3529 9.1753 29.9028C8.73885 29.4528 8.1469 29.1999 7.52967 29.1999Z" fill="#0AA884"/>
</svg>
