<svg width="24" height="24" viewBox="0 0 24 24" fill="none" xmlns="http://www.w3.org/2000/svg">
<path fill-rule="evenodd" clip-rule="evenodd" d="M24 12C24 18.6274 18.6274 24 12 24C5.37258 24 0 18.6274 0 12C0 5.37258 5.37258 0 12 0C18.6274 0 24 5.37258 24 12ZM12 20C14.1217 20 16.1566 19.1571 17.6569 17.6569C19.1571 16.1566 20 14.1217 20 12C20 9.87827 19.1571 7.84344 17.6569 6.34315C16.1566 4.84285 14.1217 4 12 4C9.87827 4 7.84344 4.84285 6.34315 6.34315C4.84285 7.84344 4 9.87827 4 12C4 14.1217 4.84285 16.1566 6.34315 17.6569C7.84344 19.1571 9.87827 20 12 20ZM12 22C6.477 22 2 17.523 2 12C2 6.477 6.477 2 12 2C17.523 2 22 6.477 22 12C22 17.523 17.523 22 12 22ZM15.822 9.265C16.237 9.217 16.632 9.107 17 8.947C16.7239 9.35389 16.3763 9.70728 15.974 9.99L15.981 10.252C15.981 12.922 13.918 16 10.144 16C9.03096 16.0016 7.94047 15.6863 7 15.091C7.161 15.109 7.324 15.119 7.489 15.119C8.41064 15.1215 9.30696 14.8176 10.037 14.255C9.61148 14.2491 9.19837 14.1108 8.85502 13.8594C8.51167 13.608 8.25513 13.2559 8.121 12.852C8.42869 12.9096 8.74536 12.898 9.048 12.818C8.587 12.7292 8.17103 12.4834 7.87092 12.1224C7.5708 11.7613 7.40509 11.3075 7.402 10.838V10.813C7.68786 10.9691 8.00644 11.0558 8.332 11.066C7.782 10.705 7.419 10.085 7.419 9.385C7.41851 9.0278 7.51456 8.6771 7.697 8.37C8.21643 8.9962 8.86068 9.50725 9.58865 9.87055C10.3166 10.2338 11.1123 10.4414 11.925 10.48C11.89 10.332 11.872 10.178 11.872 10.02C11.872 8.905 12.79 8 13.923 8C14.2028 7.99911 14.4798 8.05523 14.7372 8.16492C14.9945 8.27461 15.2269 8.43557 15.42 8.638C15.8791 8.54912 16.32 8.38347 16.724 8.148C16.57 8.619 16.246 9.015 15.822 9.265Z" fill="white"/>
</svg>
