<svg width="38" height="44" viewBox="0 0 38 44" fill="none" xmlns="http://www.w3.org/2000/svg">
<path fill-rule="evenodd" clip-rule="evenodd" d="M37.5 13.774V38C37.5 39.458 36.92 40.858 35.89 41.89C34.858 42.92 33.458 43.5 32 43.5H6C4.542 43.5 3.142 42.92 2.11 41.89C1.08 40.858 0.5 39.458 0.5 38V6C0.5 4.542 1.08 3.142 2.11 2.11C3.142 1.08 4.542 0.5 6 0.5H25.116C26.102 0.5 27.042 0.916 27.706 1.646L36.59 11.418C37.176 12.064 37.5 12.902 37.5 13.774ZM25 3.206V12C25 12.53 25.21 13.04 25.586 13.414C25.96 13.79 26.47 14 27 14H34.844C34.758 13.792 34.634 13.598 34.48 13.428L25.596 3.654C25.424 3.468 25.222 3.316 25 3.206ZM9.94 27.06L15.272 32.394C15.858 32.98 16.808 32.98 17.394 32.394L28.06 21.728C28.646 21.142 28.646 20.192 28.06 19.606C27.476 19.02 26.524 19.02 25.94 19.606L16.334 29.212L12.06 24.94C11.476 24.354 10.524 24.354 9.94 24.94C9.354 25.524 9.354 26.476 9.94 27.06Z" fill="#0AA884"/>
</svg>
