<svg width="24" height="24" viewBox="0 0 24 24" fill="none" xmlns="http://www.w3.org/2000/svg">
<path fill-rule="evenodd" clip-rule="evenodd" d="M12 24C18.6274 24 24 18.6274 24 12C24 5.37259 18.6274 0 12 0C5.37259 0 0 5.37259 0 12C0 18.6274 5.37259 24 12 24ZM16.0711 3.0787C17.1595 3.52982 18.1475 4.19237 18.978 5.02802V5.02727C20.6685 6.72151 21.6 8.97151 21.6 11.3648C21.597 16.3073 17.5778 20.3265 12.6382 20.3265H12.6345C11.1382 20.3252 9.66599 19.9496 8.35199 19.2338L3.60001 20.4818L4.87051 15.8385C4.08371 14.4769 3.67126 12.9314 3.67499 11.3588C3.67499 6.42001 7.69876 2.40002 12.6375 2.40002C13.8156 2.39691 14.9827 2.62759 16.0711 3.0787ZM12.6345 18.8123H12.6367C16.7415 18.8123 20.0843 15.4725 20.0843 11.3648C20.087 10.3864 19.8958 9.41722 19.5219 8.51315C19.1479 7.60909 18.5986 6.78806 17.9055 6.09752C17.2158 5.40364 16.3954 4.85347 15.4916 4.47884C14.5879 4.10422 13.6188 3.91257 12.6405 3.91502C8.52975 3.91502 5.18701 7.25478 5.18701 11.3588C5.18521 12.7611 5.58044 14.1354 6.327 15.3225L6.5025 15.6038L5.74951 18.3525L8.57101 17.6138L8.84326 17.775C9.9913 18.454 11.3007 18.8123 12.6345 18.8123ZM15.192 12.5078C15.3968 12.5813 16.4985 13.1228 16.7213 13.2338C16.7659 13.2563 16.8075 13.2766 16.846 13.2953C17.0023 13.3715 17.1072 13.4226 17.1518 13.4978C17.208 13.5915 17.208 14.04 17.0227 14.5613C16.8352 15.0855 15.942 15.5633 15.5115 15.627C15.1245 15.6833 14.6355 15.7065 14.0992 15.537C13.6661 15.4028 13.2405 15.2453 12.8242 15.0653C10.7328 14.1617 9.31635 12.1392 9.04135 11.7466C9.021 11.7175 9.0069 11.6974 8.99924 11.6873L8.99789 11.6855C8.88052 11.529 8.08426 10.4672 8.08426 9.36977C8.08426 8.33676 8.59262 7.79562 8.82455 7.54875C8.83981 7.5325 8.85388 7.51753 8.86652 7.50377C9.07199 7.27802 9.315 7.22252 9.465 7.22252C9.61426 7.22252 9.76349 7.22252 9.89249 7.22852C9.90933 7.22952 9.92688 7.22949 9.94507 7.22945C10.075 7.22917 10.2366 7.22884 10.3965 7.61177C10.4656 7.77695 10.5699 8.03114 10.677 8.29193C10.8606 8.73923 11.0522 9.2059 11.0872 9.27602C11.1435 9.38702 11.181 9.51901 11.1075 9.66827C11.0977 9.68793 11.0885 9.70662 11.0797 9.72455C11.0211 9.84343 10.9789 9.92882 10.8825 10.0403C10.8492 10.0795 10.815 10.1214 10.7806 10.1635C10.6994 10.2627 10.6174 10.363 10.5457 10.4325C10.434 10.545 10.317 10.665 10.449 10.89C10.578 11.1128 11.0287 11.8478 11.694 12.4403C12.415 13.0842 13.0403 13.3544 13.3539 13.4899C13.4124 13.5152 13.4601 13.5358 13.4955 13.5533C13.7183 13.665 13.8503 13.644 13.9792 13.4978C14.1105 13.3485 14.538 12.8438 14.688 12.6188C14.8372 12.396 14.9872 12.4313 15.192 12.5078Z" fill="white"/>
</svg>
