<svg width="24" height="24" viewBox="0 0 24 24" fill="none" xmlns="http://www.w3.org/2000/svg">
<path fill-rule="evenodd" clip-rule="evenodd" d="M24 12C24 18.6274 18.6274 24 12 24C5.37259 24 0 18.6274 0 12C0 5.37259 5.37259 0 12 0C18.6274 0 24 5.37259 24 12ZM12 20C14.1217 20 16.1566 19.1572 17.6569 17.6569C19.1572 16.1566 20 14.1217 20 12C20 9.87827 19.1572 7.84343 17.6569 6.34314C16.1566 4.84285 14.1217 4 12 4C9.87827 4 7.84343 4.84285 6.34314 6.34314C4.84285 7.84343 4 9.87827 4 12C4 14.1217 4.84285 16.1566 6.34314 17.6569C7.84343 19.1572 9.87827 20 12 20ZM12 22C6.47701 22 2 17.523 2 12C2 6.47701 6.47701 2 12 2C17.523 2 22 6.47701 22 12C22 17.523 17.523 22 12 22ZM9.077 8.526H14.923C16.07 8.526 17 9.44501 17 10.58V13.47C17 14.604 16.07 15.524 14.923 15.524H9.077C7.92999 15.524 7 14.605 7 13.47V10.58C7 9.446 7.92999 8.526 9.077 8.526ZM10.784 13.456L13.519 12.166C13.5372 12.157 13.5525 12.1431 13.5633 12.1259C13.574 12.1087 13.5798 12.0889 13.58 12.0686C13.5803 12.0483 13.5748 12.0284 13.5644 12.011C13.554 11.9936 13.539 11.9794 13.521 11.97L10.787 10.6C10.7703 10.5915 10.7517 10.5874 10.733 10.588C10.7209 10.5885 10.709 10.5909 10.6977 10.5952C10.6916 10.5976 10.6856 10.6005 10.68 10.6039C10.6655 10.6127 10.6534 10.6246 10.6443 10.6388C10.6433 10.6403 10.6423 10.6419 10.6414 10.6436C10.6321 10.6599 10.6272 10.6783 10.627 10.697V13.357C10.6271 13.3755 10.6318 13.3937 10.6408 13.4099C10.6498 13.4261 10.6627 13.4397 10.6783 13.4496C10.694 13.4595 10.7119 13.4652 10.7303 13.4663C10.7488 13.4675 10.7673 13.4639 10.784 13.456Z" fill="white"/>
</svg>
